<?xml version="1.0" standalone="no"?><!DOCTYPE svg PUBLIC "-//W3C//DTD SVG 1.1//EN" "http://www.w3.org/Graphics/SVG/1.1/DTD/svg11.dtd"><svg t="1677479535882" class="icon" viewBox="0 0 1395 1024" version="1.1" xmlns="http://www.w3.org/2000/svg" p-id="32496" xmlns:xlink="http://www.w3.org/1999/xlink" width="348.75" height="256"><path d="M1081.69053407 645.49754822l-59.25641914-34.63259051 37.13478058-39.23889616 22.12163856 73.87148667zM642.4992388 898.6737294l-59.25641994-34.63259051 37.13478139-39.23889615 22.12163855 73.87148665z" fill="#543F99" p-id="32497"></path><path d="M462.91020465 753.83102227v179.24782626l819.41051102-473.08460256V280.7464197L462.91020465 753.83102227z" fill="#FF6D00" p-id="32498"></path><path d="M952.14530943 90.125L132.79166666 564.06262228l330.17540625 190.56455145 819.35364277-473.93762227L952.14530943 90.125z" fill="#FFB600" p-id="32499"></path><path d="M642.53335959 898.59748456a66.99046316 116.5793291 30 1 0 116.5793291-201.92132099 66.99046316 116.5793291 30 1 0-116.57932909 201.92132099Z" fill="#7357FF" p-id="32500"></path><path d="M665.70705552 858.45946567a40.37625549 70.23193726 30 1 0 70.23193726-121.6452832 40.37625549 70.23193726 30 1 0-70.23193726 121.6452832Z" fill="#543F99" p-id="32501"></path><path d="M853.24851664 674.27682168a35.25813803 61.30366643 30 1 0 61.30366643-106.18106533 35.25813803 61.30366643 30 1 0-61.30366644 106.18106533Z" fill="#543F99" p-id="32502"></path><path d="M1081.71917212 645.45730118a66.99046316 116.5793291 30 1 0 116.57932911-201.92132016 66.99046316 116.5793291 30 1 0-116.57932911 201.92132016Z" fill="#7357FF" p-id="32503"></path><path d="M1104.89286805 605.31928228a40.37625549 70.23193726 30 1 0 70.23193725-121.6452832 40.37625549 70.23193726 30 1 0-70.23193725 121.6452832Z" fill="#543F99" p-id="32504"></path><path d="M759.53351148 98.88266687L478.20768714 261.29757517l329.2655191 191.36070291 281.38269177-162.47177655-329.32238653-191.30383466z" fill="#FFD400" p-id="32505"></path><path d="M478.26455539 261.29757517L376.0159542 423.31440815 696.35320167 619.85009594l111.12000457-167.19181787L478.26455539 261.29757517z" fill="#7357FF" p-id="32506"></path><path d="M807.47320623 452.65827807L696.35320167 619.85009594l476.26920922-275.46842367-83.76651288-54.19517074-281.38269178 162.47177655z" fill="#543F99" p-id="32507"></path><path d="M462.91020465 754.62717373v179.24782627L132.79166666 743.31044854V564.06262228l330.118538 190.56455145z" fill="#FF9700" p-id="32508"></path><path d="M871.64621512 651.62545398a18.65269226 32.47160834 30 1 0 32.47160834-56.24247492 18.65269226 32.47160834 30 1 0-32.47160834 56.24247492Z" fill="#FF9700" p-id="32509"></path><path d="M871.63733103 651.52555283l32.44317462-56.1855498 130.40961768 75.29318564-32.44317463 56.1855498z" fill="#FF9700" p-id="32510"></path><path d="M1002.0814238 726.88416534a18.65269226 32.47160834 30 1 0 32.47160751-56.24247492 18.65269226 32.47160834 30 1 0-32.47160752 56.24247493Z" fill="#FF9700" p-id="32511"></path><path d="M918.48744626 701.85656199a30.19688964 52.54599958 30 1 0 52.5460004-91.01234126 30.19688964 52.54599958 30 1 0-52.54600039 91.01234126Z" fill="#FFD400" p-id="32512"></path><path d="M971.08234213 610.80808945l-52.60286783 91.04561252 140.97568553 82.23107739 52.60286782-91.10247995-140.97568552-82.17420996z" fill="#FFD400" p-id="32513"></path><path d="M1059.52944196 783.19410566a30.19688964 52.54599958 30 1 0 52.54599958-91.01234208 30.19688964 52.54599958 30 1 0-52.54599958 91.01234208Z" fill="#FF9700" p-id="32514"></path><path d="M195.01088424 720.75813742a45.15316425 25.93179189 60 1 0 44.91518144-25.9317919 45.15316425 25.93179189 60 1 0-44.91518143 25.9317919Z" fill="#FFD400" p-id="32515"></path><path d="M346.78615036 810.64648666a45.15316425 25.93179189 60 1 0 44.91518143-25.93179189 45.15316425 25.93179189 60 1 0-44.91518142 25.93179189Z" fill="#FFD400" p-id="32516"></path></svg>