<?xml version="1.0" standalone="no"?><!DOCTYPE svg PUBLIC "-//W3C//DTD SVG 1.1//EN" "http://www.w3.org/Graphics/SVG/1.1/DTD/svg11.dtd"><svg t="1677470455309" class="icon" viewBox="0 0 1024 1024" version="1.1" xmlns="http://www.w3.org/2000/svg" p-id="8667" xmlns:xlink="http://www.w3.org/1999/xlink" width="256" height="256"><path d="M372 634H720v108H372z" fill="#A7E6FF" p-id="8668"></path><path d="M370 634h68v108h-68z" fill="#DDF5FF" p-id="8669"></path><path d="M654 634h68v108h-68z" fill="#75D2F6" p-id="8670"></path><path d="M546 634H333.88c-51.872 0-42.776-28.4-2.792-51.144l5.6-3.144 4.464-2.552c36.008-20.736 96.4-59.792 187.456-141.12l5.856-5.248s8.656-9.496 11.52-8.752l0.016 0.2m0 0l0.016-0.2c2.864-0.744 11.52 8.752 11.52 8.752 94.32 84.912 156.536 125.2 193.312 146.368l4.464 2.552 5.6 3.144c39.584 22.52 48.888 50.576-1.256 51.136l-1.536 0.008H546" fill="#9CFFEB" p-id="8671"></path><path d="M639.664 562c16.216 16 48.656 38 53.296 42 4.632 4-2.32 14-95.008 14s-20.856 16 50.976 16H762.48c20.856 0 37.08-16 6.96-36-20.088-13.336-50.984-29.336-92.696-48l-16.216 8c-7.728 0-14.68 1.336-20.856 4z" fill="#50CFB4" p-id="8672"></path><path d="M452.336 562c-16.216 16-48.656 38-53.296 42-4.632 4 2.32 14 95.008 14s20.856 16-50.976 16H329.52c-20.856 0-37.08-16-6.96-36 20.088-13.336 50.984-29.336 92.696-48l16.216 8c7.728 0 14.68 1.336 20.856 4z" fill="#E0FFF9" p-id="8673"></path><path d="M394 554L440.584 520l105.416-2 105.416 2 46.584 34z" fill="#50CFB4" p-id="8674"></path><path d="M553.88 407.568l7.056 1.84 0.24 2.8 0.344 0.272a90.4 90.4 0 0 1 6.08 5.672l1.184 1.232 1.8 1.616c76.376 68.56 135.104 111.512 186.624 141.36l1.576 0.912 4.368 2.496 5.672 3.184c23.792 13.536 39.336 29.496 41.024 46.088 1.2 11.776-4.744 21.96-15.56 27.912-8.208 4.52-19.24 6.736-33.224 7.016l-1.32 0.024-1.624 0.008h-424.24c-14.864 0-26.608-2.08-35.304-6.592-11.104-5.76-17.424-15.816-16.48-27.712 1.312-16.608 16.536-32.576 40.136-46.208l1.016-0.584 5.504-3.088 4.416-2.52 3.04-1.76 3-1.76c48.608-28.64 103.736-69.04 174.272-131.68l4.448-3.968 5.296-4.752 1.056-1.104 1.176-1.2c0.624-0.616 1.296-1.264 2-1.92l0.6-0.552c0.808-0.744 1.616-1.456 2.424-2.12l0.336-0.28 0.24-2.792 7.064-1.84c2.472-1.112 5.008-1.752 7.88-1.632 2.88-0.12 5.408 0.52 7.88 1.632zM696.408 562H395.584a791.864 791.864 0 0 1-43.32 27.216l-3.184 1.84-4.56 2.608-5.52 3.096c-8.616 4.912-15.536 10.048-20.128 14.8-1.32 1.368-2.352 2.592-3.12 3.616l-0.472 0.648 0.312 0.112c3.688 1.2 9.536 2 17.344 2.064h426.536c7.52-0.088 13.152-0.872 16.752-2l0.456-0.16-0.24-0.344a32.312 32.312 0 0 0-2.912-3.52l-0.52-0.544c-4.4-4.52-10.88-9.368-18.84-14l-1.096-0.624-5.688-3.2-4.52-2.576-3.24-1.88a792.072 792.072 0 0 1-43.216-27.152zM546 441.888l-0.248 0.272-6.48 5.808-4.568 4.08-4.496 3.976c-41.76 36.864-78.36 66.16-111.6 89.976h254.768l-3.6-2.592c-35.024-25.328-73.76-56.696-118.192-96.464l-5.344-4.8-0.24-0.256z" fill="#6A6253" p-id="8675"></path><path d="M150 342a48 48 0 1 1 45.816-62.344 32 32 0 0 1 42.112 32.456l0.84 0.848c4.536 4.52 10.48 8.776 19.008 9.032l0.8 0.008c18.96 0 25.416 19.576 13.176 20H150z" fill="#A7E6FF" p-id="8676"></path><path d="M150 246a48.024 48.024 0 0 1 45.816 33.656 32 32 0 0 1 42.112 32.456l0.84 0.848c4.536 4.52 10.48 8.776 19.008 9.032l0.8 0.008c18.824 0 25.32 19.304 13.44 19.984l1.984-7.984c-10.664-4-21.336-6-32-6-16 0-20-20-32-26s-21.08 3.28-26 0c-6-4-10-28-32-28s-34 6-42 28 24 40 40 40h-0.032l-1.76-0.032a48 48 0 0 1 1.792-95.968z" fill="#EDFAFF" p-id="8677"></path><path d="M150 238a56 56 0 0 0 0 112h121.36l0.528-0.008c12.32-0.416 17.16-11.6 12.144-21.704-4.216-8.496-13.896-14.288-25.448-14.288l-0.696-0.008-0.616-0.032c-3.888-0.248-7.224-1.76-10.624-4.608l-0.672-0.584v-0.144a40 40 0 0 0-39.976-38.624l-1.088 0.016a40.288 40.288 0 0 0-3.248 0.216l-0.888 0.112-0.288-0.608a56.024 56.024 0 0 0-50.488-31.736z m0 16a40.016 40.016 0 0 1 38.184 28.04 8 8 0 0 0 10.184 5.2 24 24 0 0 1 31.632 22.76l-0.016 0.8-0.032 0.792a8 8 0 0 0 2.272 6.128l0.832 0.848c7.096 7.064 14.72 11.12 24.48 11.416l1.528 0.024c4.384 0.136 7.744 1.736 9.6 3.864l0.112 0.128H150a40 40 0 0 1 0-80z" fill="#6A6253" p-id="8678"></path><path d="M546 512H366.384c-43.92 0-36.224-24.112-2.36-43.424l4.736-2.672 3.776-2.16c30.496-17.608 81.64-50.768 158.736-119.824l4.96-4.456s7.328-8.064 9.76-7.432l0.008 0.168m0 0l0.016-0.16c2.424-0.64 9.752 7.424 9.752 7.424 79.872 72.096 132.56 106.296 163.696 124.28l3.776 2.16 4.736 2.672c33.52 19.12 41.408 42.944-1.056 43.416l-1.304 0.008H546" fill="#9CFFEB" p-id="8679"></path><path d="M460 440c-14 16-42 38-46 42S416 496 496 496s18 16-44 16H354c-18 0-32-16-6-36 17.336-13.336 44-29.336 80-48l14 8c6.664 0 12.664 1.336 18 4z" fill="#E0FFF9" p-id="8680"></path><path d="M629.936 440c14 16 42 38 46 42S673.936 496 593.936 496s-18 16 44 16h98c18 0 32-16 6-36-17.336-13.336-44-29.336-80-48l-14 8c-6.664 0-12.664 1.336-18 4z" fill="#50CFB4" p-id="8681"></path><path d="M422 436l38-34L546 400l86 2 38 34z" fill="#50CFB4" p-id="8682"></path><path d="M553.52 317.472l7.424 1.936 0.272 3.072 0.224 0.192a78.872 78.872 0 0 1 5.008 4.784l0.56 0.6 1.464 1.312c64.544 58.096 114.144 94.464 157.608 119.72l1.328 0.768 3.688 2.112 4.808 2.712c20.776 11.84 34.424 25.904 35.96 40.984 1.12 10.992-4.448 20.536-14.424 26.04-7.336 4.056-17.024 6.016-29.208 6.272l-1.224 0.016-1.392 0.008H366.384c-12.96 0-23.272-1.832-31.04-5.872-10.232-5.32-16.136-14.744-15.264-25.856 1.2-15.088 14.544-29.144 35.12-41.08l0.96-0.56 4.64-2.608 3.736-2.136 2.568-1.496c42.064-24.568 89.84-59.536 151.56-114.656l1.92-1.712 4.4-3.96 0.16-0.168c0.928-1 2.096-2.176 3.416-3.416l0.568-0.528c0.56-0.512 1.112-1 1.656-1.472l0.272-3.072 7.416-1.936c2.352-1.04 4.776-1.648 7.52-1.536 2.76-0.112 5.184 0.488 7.536 1.536zM659.12 444H432.88a694.864 694.864 0 0 1-51.04 32.84l-1.352 0.784-3.88 2.224-4.656 2.624c-7.12 4.056-12.784 8.288-16.504 12.144l-0.512 0.544 0.304 0.056a66.16 66.16 0 0 0 10.296 0.784H726.736a65.8 65.8 0 0 0 10.008-0.784l0.32-0.056-0.616-0.648c-3.536-3.64-8.8-7.6-15.288-11.4l-1.04-0.6-4.824-2.72-3.84-2.192-2.752-1.6a697.696 697.696 0 0 1-49.584-32zM546 352.192l-4.048 3.648-3.88 3.464-4.36 3.864c-28.912 25.576-54.92 46.864-78.848 64.832H637.12c-25.928-19.464-54.28-42.816-86.056-71.248l-5.072-4.56z" fill="#6A6253" p-id="8683"></path><path d="M546 398H398.88c-35.968 0-29.664-19.824-1.928-35.704l3.88-2.192 3.096-1.784c24.976-14.48 66.864-41.744 130.016-98.52l4.056-3.664s6-6.632 7.984-6.104l0.016 0.136m0 0l0.016-0.136c1.984-0.528 7.984 6.104 7.984 6.104 65.424 59.28 108.56 87.4 134.08 102.184l3.088 1.784 3.88 2.192c27.456 15.72 33.92 35.304-0.872 35.696l-1.064 0.008H546" fill="#9CFFEB" p-id="8684"></path><path d="M526.88 261.712c0-23.88-3.064-41.92-9.184-54.104l-0.384-0.752C507.76 188.568 507.76 152 546 152l1.136 0.008c36.744 0.72 37.016 36.032 27.84 54.304l-0.288 0.544c-6.24 11.944-9.432 29.736-9.56 53.376v1.48h-38.256z" fill="#FFE17A" p-id="8685"></path><path d="M546 274c-48 57.336-78.664 88.664-92 94-13.336 5.336 15.336 10 86 14V400c-94.664-1.336-144.664-2-150-2-8 0-32-20 0-38 21.336-12 69.336-44.664 144-98l12 12z" fill="#E0FFF9" p-id="8686"></path><path d="M544 274c48 57.336 78.664 88.664 92 94 13.336 5.336-15.336 10-86 14V400c94.664-1.336 144.664-2 150-2 8 0 32-20 0-38-21.336-12-69.336-44.664-144-98l-12 12z" fill="#50CFB4" p-id="8687"></path><path d="M524.024 198c7.976-20 22.024-16 28-10 3.984 4 1.976 23.336-6.024 58l34.024-20 2-46c-4-21.336-13.336-32-28-32-22 0-48 30-30 50z" fill="#FFF4DA" p-id="8688"></path><path d="M721 618a16 16 0 0 1 15.992 15.504l0.008 0.496v84a16 16 0 0 1-31.992 0.496l-0.008-0.496v-84a16 16 0 0 1 16-16z m-348 0a16 16 0 0 1 15.992 15.504l0.008 0.496v84a16 16 0 0 1-31.992 0.496l-0.008-0.496v-84a16 16 0 0 1 16-16zM546 136l1.44 0.016c23.616 0.456 40.056 12.488 46.104 31.768 4.48 14.32 2.608 31.432-3.904 44.952l-0.432 0.872-0.64 1.256c-4.568 9.136-7.208 23.92-7.432 44.048l3.496 3.056c43.424 37.864 78.216 63 109.128 81.152l2.288 1.328 3 1.728 3.952 2.24c17.744 10.16 29.504 22.304 30.872 35.872 1.032 10.208-4.136 19.112-13.272 24.168-6.464 3.584-14.8 5.288-25.168 5.52l-1.16 0.016-1.16 0.008H398.888c-11.04 0-19.928-1.584-26.784-5.16-9.352-4.88-14.84-13.68-14.024-23.992 1.064-13.56 12.536-25.72 30.08-35.952l0.912-0.528 3.784-2.136 3.04-1.76 2.304-1.336 2.48-1.464c31.12-18.528 66.2-44.16 110.176-82.76-0.216-19.736-2.744-34.32-7.104-43.408l-0.296-0.6-0.76-1.488c-6.768-13.496-8.816-31.04-4.24-45.632C504.576 148.32 521.224 136.304 545.104 136L546 136z m48.368 176H497.624c-31.376 25.44-58.4 44.16-83.296 58.776l-2.432 1.416-3.192 1.84-3.8 2.152a74.96 74.96 0 0 0-8.176 5.36l-0.528 0.408 0.584 0.016 1.384 0.032H694l0.68-0.016 1.12-0.032-0.184-0.144a71.52 71.52 0 0 0-7.488-5.032l-0.96-0.56-3.968-2.24-3.152-1.816-2.424-1.408-2.992-1.776C650.576 354.64 624.448 336.4 594.368 312z m-40.272-34.288h-16.192c-7.224 6.416-14.224 12.504-21.032 18.288h58.24a1271.808 1271.808 0 0 1-18.32-15.896l-2.696-2.392zM546 168c-10.576 0-15.072 3.192-17.008 9.36-1.936 6.168-0.92 15.04 2.216 21.52l0.792 1.552c4.608 9.192 7.688 20.512 9.36 34.032 1.456-0.4 2.984-0.592 4.64-0.536a15.28 15.28 0 0 1 4.64 0.536c1.608-13.056 4.52-24.048 8.856-33.008L560 200.432l0.672-1.312c3.24-6.432 4.304-15.496 2.336-21.76-1.84-5.872-5.984-9.008-15.344-9.328L546.984 168 546 168z" fill="#6A6253" p-id="8689"></path><path d="M518 376m8 0l40 0q8 0 8 8l0 56q0 8-8 8l-40 0q-8 0-8-8l0-56q0-8 8-8Z" fill="#9CFFEB" p-id="8690"></path><path d="M526 440L552 428l4-46h18v62l-10 4h-38z" fill="#50CFB4" p-id="8691"></path><path d="M566 368h-40a16 16 0 0 0-16 16v56a16 16 0 0 0 16 16h40a16 16 0 0 0 16-16v-56a16 16 0 0 0-16-16z m-40 16h40v56h-40v-56z" fill="#6A6253" p-id="8692"></path><path d="M488 710H305.6l-45.6 64H488zM488 774H213.712l-45.712 64h320zM602 710h182.4l45.6 64h-228zM602 774h274.288l45.712 64h-320z" fill="#F5F5F5" p-id="8693"></path><path d="M454 838L481.6 728h128.8l27.6 110h-184z" fill="#D8D8D8" p-id="8694"></path><path d="M560 734l26 104h52l-32-104zM622 748H776l-18-26h28l34 44h-192zM470 748H316l18-26h-28L272 766h192zM642 812h226l-18-26h28l34 44H648zM450 812H224l18-26h-28l-34 44h264z" fill="#B5B5B5" p-id="8695"></path><path d="M168.032 854c-12.608 0-20.112-13.808-13.688-24.296l0.664-1 45.712-64a16 16 0 0 1 11.736-6.656l1.28-0.048 38.048-0.008 40.816-57.28a16 16 0 0 1 11.744-6.664l1.28-0.048h182.4A16 16 0 0 1 503.912 712H586.16a16 16 0 0 1 15.872-18h182.4l1.288 0.048a16 16 0 0 1 11.744 6.664l40.816 57.28 38.04 0.008 1.28 0.048a16 16 0 0 1 11.736 6.656l45.72 64 0.664 1c6.424 10.488-1.08 24.296-13.68 24.296H168.024zM593.088 744H496.968l-7.312 33.416-0.016 0.104-0.16 0.624-0.184 0.632-13.512 43.224h138.488l-13.512-43.224-0.176-0.632-0.16-0.624-0.016-0.104L593.088 744z m-333.16 46h-37.952l-22.856 32 242.4-0.008 8.024-31.992H259.928z m608.16 0H642.448l8.024 31.992h240.48l-22.864-32z m-402.488-64H313.872l-22.792 31.992h166.496L465.6 726z m310.592 0H626.392l8.024 31.992h164.56l-22.784-31.992z" fill="#6A6253" p-id="8696"></path><path d="M806.576 247.408c11.16-11.152 23.904-11.152 35.064-6.376 6.736 2.888 10.856 15.368 12.36 37.44 1.504-22.072 5.624-34.552 12.36-37.44 11.16-4.776 23.904-4.776 35.064 6.376 11.152 11.16 25.496 3.192 36.648 19.12 11.16 15.936 15.936 33.472 7.968 43.032-7.968 9.56-70.112 11.152-74.896 35.056-3.088 15.44-8.672 23.408-16.752 23.88a2 2 0 0 1-0.4 0.024h-0.376c-8.088-0.496-13.672-8.456-16.76-23.904-4.784-23.904-66.928-25.496-74.896-35.056-7.968-9.56-3.192-27.096 7.968-43.024 11.152-15.936 25.496-7.968 36.648-19.12z" fill="#FFCA7D" p-id="8697"></path><path d="M806.576 247.408c11.16-11.152 23.904-11.152 35.064-6.376 6.736 2.888 10.856 15.368 12.36 37.44 1.504-22.072 5.624-34.552 12.36-37.44 11.16-4.776 23.904-4.776 35.064 6.376 11.152 11.16 25.496 3.192 36.648 19.12 11.16 15.936 15.936 33.472 7.968 43.032-7.968 9.56-70.112 11.152-74.896 35.056-3.088 15.44-8.672 23.408-16.752 23.88a2 2 0 0 1-0.4 0.024h-0.376c-8.088-0.496-13.672-8.456-16.76-23.904-4.784-23.904-66.928-25.496-74.896-35.056-7.968-9.56-3.192-27.096 7.968-43.024 11.152-15.936 25.496-7.968 36.648-19.12z" fill="#FFCA7D" p-id="8698"></path><path d="M854 284c10 0 18-8 22-18s18 8 22 8 18 2 22 16-42 18-54 48c4 20 6-4 16-8s36-10 52-14 24-22 12-36-10-26-30-26-22-16-36-16-26 12-26 24-10 22 0 22z" fill="#FFB447" p-id="8699"></path><path d="M853.776 284c-10 0-18-8-22-18s-18 8-22 8-18 2-22 16 42 18 54 48c-4 20-6-4-16-8s-36-10-52-14-24-22-12-36 10-26 30-26 22-16 36-16 26 12 26 24 10 22 0 22z" fill="#FFE9C9" p-id="8700"></path><path d="M863.216 233.68c15.272-6.544 30.728-4.624 43.248 7.472l0.896 0.88c2.528 2.424 4.984 3.392 11.216 4.72l1.864 0.392 1.84 0.4c9.944 2.288 16.416 5.92 22.352 14.4 13.76 19.672 18.072 40.12 7.56 52.736-3.136 3.76-8.024 5.904-16.992 8.36l-0.88 0.24-2.032 0.536-18.64 4.552-1.072 0.264-2.68 0.696-1.952 0.528c-18.216 5.04-27.776 10.424-28.96 16.328-2.912 14.592-8.272 24.48-16.584 28.424 2.488 35.6 16.688 56.24 42.8 63.696a8 8 0 0 1-4.4 15.392c-33.4-9.544-51.6-36.4-54.416-78.736-8.408-3.536-13.904-12.928-16.992-26.968l-0.2-0.928-0.184-0.88c-1.176-5.904-10.736-11.296-28.952-16.328l-0.96-0.264-1.984-0.528-2.752-0.696c-5.656-1.408-15.84-3.84-18.64-4.56l-2.04-0.528c-9.536-2.56-14.64-4.72-17.872-8.6-10.512-12.616-6.208-33.064 7.56-52.736 5.936-8.48 12.4-12.112 22.36-14.4l0.816-0.184 2.904-0.616c6.216-1.328 8.664-2.296 11.192-4.72l0.896-0.88c12.52-12.08 27.976-14.008 43.248-7.464 3.496 1.496 6.368 4.08 8.704 7.76l0.512 0.832 0.08-0.136c2.176-3.648 4.824-6.288 8.04-7.944l0.616-0.296 0.48-0.216z m32.056 18.904c-7.6-7.28-16.16-8.312-25.76-4.2-0.224 0.104-0.624 0.448-1.176 1.232-0.856 1.216-1.72 3.04-2.52 5.456-1.816 5.504-3.12 13.52-3.84 23.944-0.672 9.944-15.28 9.944-15.96 0-0.704-10.424-2.016-18.44-3.832-23.944-0.8-2.424-1.664-4.24-2.52-5.456-0.552-0.784-0.96-1.128-1.176-1.232-9.6-4.112-18.16-3.088-25.76 4.2l-1 0.976c-4.84 4.688-9.256 6.632-17.128 8.432l-0.856 0.192-4.456 0.96c-6.392 1.464-9.496 3.24-12.808 7.976-9.928 14.184-12.832 27.4-8.6 33.04l0.152 0.184v-0.016l0.024 0.008 0.464 0.264c0.512 0.288 1.208 0.608 2.072 0.944 1.968 0.776 4.6 1.584 8.12 2.512l1.28 0.336 16.44 4c1.48 0.368 2.8 0.696 3.816 0.96l0.904 0.232 2.624 0.696c9.832 2.68 17.4 5.384 23.688 8.76 9.424 5.056 15.536 11.496 17.232 20.008l0.32 1.496c2.384 10.96 5.632 15.576 8.848 15.952l0.136 0.008 0.136-0.008c3-0.352 6.024-4.376 8.352-13.784l0.336-1.408 0.32-1.496 0.16-0.76c1.696-8.512 7.808-14.96 17.232-20.008 6.016-3.224 13.2-5.84 22.424-8.408l1.264-0.352 2.624-0.696 3.304-0.84c5.2-1.28 13.472-3.272 17.04-4.152l0.816-0.2 1.28-0.336c3.52-0.928 6.16-1.736 8.12-2.512 0.864-0.336 1.56-0.656 2.08-0.944l0.408-0.24 0.08-0.032v0.016l0.144-0.192c4.08-5.44 1.52-17.944-7.6-31.568l-0.488-0.728-0.512-0.736c-3.312-4.736-6.416-6.512-12.808-7.976l-0.672-0.152-2.928-0.616-1.68-0.376c-7.888-1.808-12.32-3.752-17.16-8.44l-1-0.976z" fill="#6A6253" p-id="8701"></path><path d="M381.896 570.216l11.312 56.568 41.488 33.944-15.088 52.8 30.168 45.256-30.168 45.248 11.312 56.576-172.16-69.936a74.688 74.688 0 0 0-16.4-80.92 74.688 74.688 0 0 0-80.912-16.392L91.512 521.2l56.56 11.304 45.264-30.16 45.256 30.16 52.8-15.08 33.936 41.48 56.568 11.312z" fill="#FFE281" p-id="8702"></path><path d="M189.56 762.336l14.544 37.808a37.336 37.336 0 1 1-52.352-52.352l37.808 14.544zM146 534c4 32 15.336 88.664 34 170h10V508c-14.664 6.664-29.336 15.336-44 26zM236 538l-32 154 12 4 70-172zM324 564L228 704l10 8L376 570zM386 632L248 722l6 10 176-70zM420 714l-160 34 4 10h182zM410 806L270 776v12l152 66z" fill="#F1C634" p-id="8703"></path><path d="M191.448 486c1.312 0 2.584 0.16 3.8 0.456 2.032 0.24 4.032 0.88 5.872 1.904l0.616 0.36 0.48 0.304 39.096 26.064 45.68-13.048a16 16 0 0 1 16.016 4.384l0.392 0.424 0.368 0.44 30.32 37.048 50.944 10.192a16 16 0 0 1 12.432 12l0.12 0.56 10.192 50.944 37.048 30.32A16 16 0 0 1 450.36 664l-0.128 0.56-0.16 0.56-13.04 45.68 26.064 39.096c1.424 2.144 2.28 4.544 2.576 6.992a16.024 16.024 0 0 1-6.88 17.216l-22.192 33.28 10.016 50.08c2.432 12.16-9.248 22.2-20.76 18.312l-0.448-0.16-0.504-0.192-137.272-55.76a16.12 16.12 0 0 1-1.32-0.432l-0.48-0.192-67.96-27.68 1.168 3.032a16 16 0 0 1-1.896 15.016l-0.352 0.48a53.336 53.336 0 1 1-74.784-74.784 16 16 0 0 1 14.928-2.456l0.56 0.208 3.664 1.4-13.096-32.144a16.048 16.048 0 0 1-1.232-2.272l-0.2-0.464-69.944-172.168c-4.736-11.664 5.216-23.904 17.504-21.8l0.456 0.088 50.08 10.016 33.272-22.192c2.76-4.28 7.52-7.152 12.952-7.32l0.496-0.008z m227.176 290.664H279.136c-0.16 1.04-0.344 2.08-0.544 3.112l-0.312 1.544 131.12 53.272-5.48-27.416a16 16 0 0 1 1.712-10.928l0.336-0.576 0.328-0.512 12.328-18.496z m-262.536-10.064l-0.064 0.112a21.344 21.344 0 0 0 28.632 29.464l0.528-0.296 0.112-0.072-8.112-21.096-21.096-8.112z m254.16-78.56l-132.472 53.52c0.24 1.04 0.48 2.072 0.68 3.104h142.68L406.296 722.4a16 16 0 0 1-2.352-12.112l0.128-0.592 0.16-0.56 6.016-21.096zM372.08 602.672l-108.08 108.08 0.992 1.464 138.824-56.08-20.728-16.96a16 16 0 0 1-5.248-7.984l-0.168-0.632-0.144-0.64-5.448-27.248z m-75.104-53.16l-58.12 136.928c0.84 0.544 1.68 1.112 2.512 1.688l108.08-108.08-27.248-5.456a16 16 0 0 1-8.824-5.056l-0.424-0.496-15.976-19.528z m-89.52-18.536v142.68l1.888 0.4 56.304-132.64-22.656 6.48a16 16 0 0 1-12.248-1.448l-0.528-0.312-0.496-0.32-22.264-14.84z m-32 2.512l-18.496 12.336a16 16 0 0 1-10.784 2.568l-0.632-0.088-0.592-0.104-27.416-5.488 44.536 109.624c0.416 0.656 0.784 1.352 1.112 2.08l0.2 0.48 7.696 18.88 1.272-0.256c1.032-0.2 2.064-0.384 3.104-0.544V533.488z" fill="#6A6253" p-id="8704"></path></svg>