<?xml version="1.0" standalone="no"?><!DOCTYPE svg PUBLIC "-//W3C//DTD SVG 1.1//EN" "http://www.w3.org/Graphics/SVG/1.1/DTD/svg11.dtd"><svg t="1677479574546" class="icon" viewBox="0 0 1024 1024" version="1.1" xmlns="http://www.w3.org/2000/svg" p-id="35230" xmlns:xlink="http://www.w3.org/1999/xlink" width="256" height="256"><path d="M477.33 562.65l-194.68 284.4c-19.09 27.88 0.88 65.75 34.67 65.75h389.36c33.79 0 53.76-37.86 34.67-65.75l-194.68-284.4c-16.69-24.38-52.65-24.38-69.34 0z" fill="#77C3FF" p-id="35231"></path><path d="M784.83 779.2H239.17c-84.51 0-153.02-68.51-153.02-153.02V264.22c0-84.51 68.51-153.02 153.02-153.02h545.65c84.51 0 153.02 68.51 153.02 153.02v361.95c0.01 84.52-68.5 153.03-153.01 153.03z" fill="#53B5FF" p-id="35232"></path><path d="M770.01 704.05H253.99c-39.78 0-72.02-32.25-72.02-72.02V258.37c0-39.78 32.25-72.02 72.02-72.02h516.02c39.78 0 72.02 32.25 72.02 72.02v373.65c0 39.78-32.24 72.03-72.02 72.03z" fill="#FFFFFF" opacity=".5" p-id="35233"></path><path d="M745.8 328.3h-50.1c-23.06 0-41.75-18.69-41.75-41.75s18.69-41.75 41.75-41.75h50.1c23.06 0 41.75 18.69 41.75 41.75s-18.69 41.75-41.75 41.75z" fill="#FCDA6E" p-id="35234"></path><path d="M602.19 443.68c0-36.63-32.61-57.17-72.69-57.17h-45.12c-0.3 0-0.58 0.04-0.87 0.04 0.06 0.04 0.1 0.09 0.16 0.12-0.6-0.04-1.18-0.16-1.79-0.16-13.84 0-25.07 10.25-25.07 22.91V583.5c0 12.65 11.22 22.91 25.07 22.91 0.61 0 1.19-0.13 1.79-0.16-0.06 0.04-0.1 0.09-0.16 0.12 0.29 0 0.58 0.04 0.87 0.04h45.12c40.08 0 72.69-20.54 72.69-57.17 0-35.42-16.05-41.11-27.17-52.78 11.13-11.68 27.17-19.68 27.17-52.78zM529.5 560.59h-22.56v-41.23h22.56c12.44 0 22.56 9.25 22.56 20.61 0 11.37-10.12 20.62-22.56 20.62z m0-87.04h-22.56v-41.23h22.56c12.44 0 22.56 9.25 22.56 20.61 0 11.37-10.12 20.62-22.56 20.62zM434.71 564.12l-94.66-163.96c-2.58-5.11-6.72-9.38-12.11-12.14-0.3-0.15-0.58-0.32-0.88-0.47-0.42-0.19-0.78-0.46-1.21-0.64-0.79-0.32-1.6-0.46-2.41-0.71-0.58-0.18-1.15-0.37-1.75-0.51-1.06-0.25-2.12-0.41-3.19-0.53-0.81-0.1-1.6-0.18-2.42-0.21-0.85-0.02-1.68 0.01-2.53 0.07-1.06 0.06-2.1 0.17-3.16 0.35-0.58 0.11-1.15 0.25-1.72 0.39-1.24 0.3-2.47 0.67-3.68 1.15-0.36 0.15-0.71 0.32-1.07 0.48-0.89 0.39-1.79 0.7-2.65 1.19-0.47 0.27-0.84 0.63-1.28 0.92-0.1 0.07-0.2 0.15-0.3 0.22-5.28 3.57-8.98 8.63-10.84 14.33l-67.06 164.48c-5.79 14.2 1.03 30.42 15.23 36.21 14.2 5.79 30.42-1.03 36.21-15.23l8.21-20.14h92.13l13.01 22.53c7.67 13.28 24.66 17.84 37.94 10.17s17.86-24.67 10.19-37.95z m-134.37-41.05l19.26-47.24 27.27 47.24h-46.53zM754.96 565.91h-16.18c-37.03 0-67.15-30.12-67.15-67.15s30.12-67.15 67.15-67.15h16.18c12.78 0 23.15-10.36 23.15-23.15 0-12.78-10.36-23.15-23.15-23.15h-16.18c-62.55 0-113.44 50.89-113.44 113.44s50.89 113.44 113.44 113.44h16.18c12.78 0 23.15-10.36 23.15-23.15 0-12.77-10.37-23.13-23.15-23.13z" fill="#FFFBE8" p-id="35235"></path></svg>