<svg xml:space="preserve" style="enable-background:new 0 0 500 500;" viewBox="0 0 500 500" height="500px" width="500px" y="0px" x="0px" xmlns:xlink="http://www.w3.org/1999/xlink" xmlns="http://www.w3.org/2000/svg" id="Layer_1" version="1.1">
<path d="M191.605,389.64c-9.52,14.751-10.404,52.735-9.591,81.585c0,7.825,18.848,11.403,19.87,4.678
	c6.337-33.223,11.763-64.895,19.948-81.826c-3.506,1.169-15.197-1.168-19.026-1.854C197.147,390.916,191.605,389.64,191.605,389.64z" style="fill:#3F3F3F;"></path>
<path d="M208.95,494.556c-2.518,8.366-14.797,3.22-30.434-1.488c-15.638-4.709-28.713-7.195-26.193-15.562
	c2.518-8.364,24.906-11.333,40.544-6.625C208.504,475.59,211.47,486.186,208.95,494.556z"></path>
<path d="M208.651,393.264c-7.524,17.003-12.815,47.683-15.635,86.003c4.336,0.598,8.408-0.336,8.868-3.364
	c6.337-33.223,11.763-64.895,19.948-81.826C219.49,394.853,213.512,394.074,208.651,393.264z" style="opacity:0.52;"></path>
<path d="M201.998,486.406c-1.223,6.353-11.885,3.253-25.279,0.672c-13.391-2.582-24.442-3.66-23.217-10.015
	c1.225-6.356,19.408-9.866,32.797-7.284C199.691,472.356,203.225,480.052,201.998,486.406z" style="fill:#3F3F3F;"></path>
<path d="M186.594,477.769c-0.279,2.806-4.666,2.454-10.066,1.919c-5.4-0.532-9.773-1.05-9.494-3.854
	c0.279-2.801,4.881-4.64,10.283-4.107C182.717,472.265,186.873,474.97,186.594,477.769z" style="fill:#666666;"></path>
<g>
	<path d="M302.115,390.225c9.519,14.75,19.349,27.901,15.363,81.586c0,7.825-18.85,11.402-19.871,4.676
		c-6.338-33.222-17.535-64.893-25.719-81.825c3.506,1.167,15.197-1.169,19.025-1.853C296.574,391.5,302.115,390.225,302.115,390.225
		z" style="fill:#3F3F3F;"></path>
	<path d="M290.544,495.142c2.518,8.364,14.797,3.217,30.433-1.49c15.639-4.709,28.713-7.195,26.192-15.562
		c-2.518-8.362-24.906-11.331-40.543-6.626C290.988,476.173,288.021,486.771,290.544,495.142z"></path>
	<g>
		<path d="M285.07,393.849c7.521,17.002,18.583,47.682,21.406,86.004c-4.34,0.596-8.41-0.339-8.869-3.366
			c-6.338-33.222-17.535-64.893-25.719-81.825C274.229,395.438,280.207,394.659,285.07,393.849z" style="opacity:0.52;"></path>
	</g>
	<path d="M297.494,486.992c1.223,6.353,11.885,3.251,25.278,0.669c13.391-2.581,24.44-3.659,23.218-10.014
		c-1.226-6.356-19.408-9.866-32.799-7.285C299.801,472.94,296.268,480.638,297.494,486.992z" style="fill:#3F3F3F;"></path>
	<path d="M312.898,478.353c0.279,2.805,4.665,2.454,10.065,1.918c5.4-0.531,9.773-1.05,9.496-3.853
		c-0.276-2.803-4.88-4.641-10.282-4.109C316.775,472.851,312.621,475.554,312.898,478.353z" style="fill:#666666;"></path>
</g>
<path d="M202.06,104.968c4.996,18.215-6.627,38.279-25.964,44.816c-19.333,6.532-39.06-2.938-44.06-21.157
	c-4.994-18.219,6.628-38.285,25.966-44.817C177.334,77.277,197.062,86.749,202.06,104.968z" style="fill:#DAE8F0;"></path>
<path d="M257.682,80.078c6.209,22.638-8.237,47.57-32.263,55.689c-24.03,8.122-48.542-3.649-54.751-26.289
	c-6.211-22.639,8.235-47.574,32.263-55.693C226.958,45.666,251.475,57.437,257.682,80.078z" style="fill:#DAE8F0;"></path>
<path d="M238.44,75.034c-4.171-15.229-22.455-22.536-40.825-16.333
	c-6.5,2.199-12.12,5.803-16.5,10.209c0,0-6.829,10.889-7.068,26.514c0,0-0.227-12.486-6.962-12.52
	c-1.255,0.287-2.518,0.62-3.785,1.048c-0.62,0.317-1.161,0.516-1.633,0.624c-14.785,5.727-24.028,19.375-20.787,31.191
	c3.363,12.253,18.851,17.873,34.59,12.556c7.641-2.585,13.92-7.279,17.992-12.821c5.972,1.04,12.614,0.588,19.277-1.661
	C231.114,107.633,242.618,90.257,238.44,75.034z" style="opacity:0.52;fill:#FFFFFF;"></path>
<path d="M351.47,169.751c5.825,32.636-37.194,50.486-103.259,60.186
	c-66.065,9.697-104.39,11.058-110.215-21.578c-5.825-32.637,23.06-86.912,89.127-96.611
	C293.184,102.05,345.647,137.116,351.47,169.751z" style="fill:#5A3D1C;"></path>
<path d="M210.5,115.111c0,0,56.349-3.892,72.021-30.713c0,0,7.412,30.853-22.358,35.223
	C230.402,123.99,210.5,115.111,210.5,115.111z" style="fill:#5A3D1C;"></path>
<path d="M248.384,110.135c0,0,36.733-0.093,49.795-19.918c0,0,5.56,22.51-18.584,26.056
	C255.448,119.817,248.384,110.135,248.384,110.135z" style="fill:#5A3D1C;"></path>
<g>
	<path d="M377.207,231.518c-1.504-5.48-6.803-19.313,0.556-22.07c0,0,5.95-2.279,13.56,16.504
		c7.614,18.787,2.299,23.683,2.299,23.683S383.146,253.193,377.207,231.518z" style="fill:#D7E6ED;"></path>
	<path d="M324.458,270.193l52.576-17.53c2.056-0.683,3.853-1.985,5.142-3.725l26.288-35.484
		c3.467-4.685,2.482-11.293-2.199-14.765c-4.685-3.468-11.291-2.484-14.765,2.199l-26.283,35.486
		c1.287-1.743,3.084-3.044,5.14-3.731l-52.575,17.526c-5.526,1.842-8.515,7.819-6.676,13.35
		C312.952,269.046,318.933,272.038,324.458,270.193z" style="fill:#F7C8B6;"></path>
	<g>
		<path d="M395.688,212.976c0,0,14.567-6.589,31.257,3.502" style="fill:#B2C5CF;"></path>
		<path d="M398.946,220.188l-0.084,0.036c0.456-0.193,11.299-4.644,23.988,3.028
			c3.739,2.263,8.607,1.062,10.87-2.677c2.26-3.741,1.059-8.607-2.679-10.871c-20.03-12.105-37.871-4.279-38.624-3.94
			c-3.981,1.801-5.751,6.488-3.948,10.475C390.275,220.219,394.962,221.986,398.946,220.188z" style="fill:#F7C8B6;"></path>
	</g>
	<g>
		<path d="M398.347,209.188c0,0,12.305-10.689,39.271-6.781" style="fill:#B2C5CF;"></path>
		<path d="M403.54,215.161l-0.105,0.088c0.42-0.337,10.544-8.271,33.048-5.01
			c4.326,0.625,8.342-2.371,8.97-6.697c0.624-4.327-2.372-8.343-6.699-8.968c-29.699-4.307-44.056,7.303-45.6,8.639
			c-3.297,2.867-3.647,7.865-0.781,11.166C395.237,217.679,400.243,218.03,403.54,215.161z" style="fill:#F7C8B6;"></path>
	</g>
	<path d="M445.452,203.544c0.219-1.536-0.032-3.02-0.617-4.337c0.904,7.151-4.63,6.944-18.777,5.56
		c-14.171-1.387-15.004,2.591-15.004,2.591c-0.188,1.907,0.829,0.082,0,0c5.329-1.277,15.615,1.462,25.429,2.885
		C440.809,210.867,444.824,207.871,445.452,203.544z" style="fill:#EBBEAD;"></path>
	<g>
		<path d="M432.322,185.534c-27.058,9.369-33.665,21.164-33.665,21.164" style="fill:#B2C5CF;"></path>
		<path d="M429.731,178.054c-29.059,10.064-37.151,23.299-37.98,24.775
			c-2.134,3.815-0.779,8.638,3.034,10.777c3.816,2.136,8.642,0.775,10.776-3.038c-0.063,0.115-0.1,0.171-0.1,0.171
			c0.06-0.096,6.323-9.717,29.452-17.725c4.128-1.431,6.321-5.938,4.889-10.07C438.375,178.812,433.864,176.624,429.731,178.054z" style="fill:#F7C8B6;"></path>
	</g>
	<g>
		<path d="M401.056,183.339c0,0-5.59,13.115-5.136,24.637" style="fill:#B2C5CF;"></path>
		<path d="M392.966,179.891c-0.649,1.528-6.353,15.314-5.834,28.43c0.19,4.854,4.28,8.633,9.135,8.444
			c4.854-0.191,8.634-4.281,8.438-9.132c-0.303-7.757,3.107-17.685,4.446-20.856l-0.006,0.012c1.904-4.468-0.176-9.634-4.642-11.54
			C400.034,173.345,394.872,175.422,392.966,179.891z" style="fill:#F7C8B6;"></path>
	</g>
	<path d="M404.759,218.454l-5.201-1.542c-6.201,14.291-35.604,16.747-35.604,16.747
		c-18.025,0.592-26.816,22.799-26.816,22.799l-3.847,10.791l43.741-14.583c2.056-0.684,3.853-1.986,5.141-3.726L404.759,218.454z" style="fill:#EBBEAD;"></path>
	<path d="M418.843,216.558c-10.902-7.312-19.295,0.351-19.295,0.351s0.874,0.935,2.482,2.391
		c4.194-0.867,12.063-1.339,20.809,3.948c3.745,2.263,8.609,1.062,10.87-2.677c0.161-0.263,0.259-0.542,0.387-0.813
		c0.018-0.058,0.04-0.117,0.056-0.173C432.521,222.578,427.847,222.6,418.843,216.558z M434.783,217.406
		c-0.054,0.235-0.26,1.046-0.628,2.177c0.1-0.181,0.193-0.362,0.271-0.563c0.138-0.404,0.233-0.815,0.304-1.225
		c0.018-0.114,0.041-0.219,0.052-0.337C434.783,217.442,434.781,217.424,434.783,217.406z" style="fill:#EBBEAD;"></path>
	<g>
		<path d="M387.102,249.329c2.502,2.873,6.52,0.305,6.52,0.305s2.293-2.159,1.686-8.994
			c-1.858,12.621-12.805-10.684-14.783-21.263c-1.729-9.255,2.349-7.277,3.407-6.625c-3.735-4.225-6.168-3.303-6.168-3.303
			C366.311,216.116,379.184,240.231,387.102,249.329z" style="opacity:0.08;"></path>
	</g>
	<g>
		<path d="M393.623,249.633c-33.432,16.51-72.081,31.05-108.154,30.957
			c-6.969,1.035-2.857-11.735-10.203-24.479c37.236-11.818,69.535-25.836,102.499-46.663c0,0-5.448,1.5,2.544,23.988
			C387.215,252.839,393.623,249.633,393.623,249.633z" style="fill:#D7E6ED;"></path>
		<g>
			<path d="M393.623,249.633c-33.432,16.51-72.081,31.05-108.154,30.957
				c-6.969,1.035-2.857-11.735-10.203-24.479c37.236-11.818,69.535-25.836,102.499-46.663c0,0-5.448,1.5,2.544,23.988
				C387.215,252.839,393.623,249.633,393.623,249.633z" style="opacity:0.39;fill:#FFFFFF;"></path>
		</g>
	</g>
	<path d="M281.035,276.311c0.688,2.973,1.714,4.684,4.434,4.279c36.073,0.094,74.723-14.446,108.154-30.957
		c0,0-6.408,3.206-13.314-16.199c-0.184-0.524-0.356-1.026-0.525-1.528C379.783,231.906,352.546,263.277,281.035,276.311z" style="fill:#C3D8E3;"></path>
	<path d="M436.322,178.707c0,0,8.126,13.655-24.159,16.239c0,0,26.858,3.301,28.017-8.52
		C440.182,186.428,440.933,179.765,436.322,178.707z" style="fill:#EBBEAD;"></path>
	<path d="M409.492,178.566c-0.799-1.887-6.831-3.869-6.831-3.869s9.27,4.544-0.812,17.255
		C401.851,191.95,413.554,188.235,409.492,178.566z" style="fill:#EBBEAD;"></path>
</g>
<g>
	<g>
		<g>
			<path d="M122.171,247.199c1.295-5.53,6.068-19.554-1.391-22.032c0,0-6.032-2.054-12.928,17.004
				c-6.896,19.057-1.402,23.754-1.402,23.754S117.056,269.086,122.171,247.199z" style="fill:#D7E6ED;"></path>
			<path d="M176.339,283.858L123.14,268.33c-2.078-0.609-3.922-1.844-5.279-3.535l-27.607-34.464
				c-3.644-4.55-2.908-11.191,1.642-14.834c4.548-3.644,11.189-2.911,14.834,1.639l27.607,34.466
				c-1.354-1.693-3.199-2.926-5.279-3.53l53.195,15.526c5.598,1.635,8.807,7.494,7.173,13.088
				C187.795,282.281,181.938,285.492,176.339,283.858z" style="fill:#F7C8B6;"></path>
			<g>
				<path d="M103.008,229.369c0,0-14.811-6.034-31.109,4.679" style="fill:#B2C5CF;"></path>
				<path d="M100.02,236.697l0.083,0.034c-0.462-0.177-11.466-4.215-23.856,3.93
					c-3.651,2.403-8.562,1.387-10.962-2.265c-2.4-3.653-1.384-8.562,2.271-10.964c19.552-12.853,37.677-5.703,38.442-5.394
					c4.046,1.651,5.99,6.267,4.341,10.316C108.689,236.402,104.068,238.347,100.02,236.697z" style="fill:#F7C8B6;"></path>
			</g>
			<g>
				<path d="M100.201,225.683c0,0-12.695-10.219-39.496-5.294" style="fill:#B2C5CF;"></path>
				<path d="M95.241,231.851l0.107,0.083c-0.432-0.321-10.849-7.868-33.213-3.759
					c-4.301,0.789-8.424-2.056-9.213-6.354c-0.791-4.299,2.054-8.424,6.353-9.215c29.516-5.422,44.301,5.638,45.893,6.915
					c3.404,2.741,3.944,7.723,1.203,11.129C103.629,234.052,98.646,234.592,95.241,231.851z" style="fill:#F7C8B6;"></path>
			</g>
			<path d="M52.92,221.821c-0.281-1.524-0.084-3.018,0.448-4.356c-0.634,7.181,4.892,6.765,18.972,4.848
				c14.109-1.92,15.093,2.024,15.093,2.024c0.257,1.898-0.827,0.111,0,0c-5.375-1.076-15.55,2.05-25.301,3.84
				C57.834,228.964,53.711,226.12,52.92,221.821z" style="fill:#EBBEAD;"></path>
			<g>
				<path d="M65.36,203.329c27.391,8.343,34.442,19.878,34.442,19.878" style="fill:#B2C5CF;"></path>
				<path d="M67.666,195.757c29.422,8.96,38.01,21.881,38.89,23.323c2.279,3.733,1.104,8.604-2.627,10.885
					c-3.731,2.277-8.602,1.104-10.878-2.627c0.068,0.113,0.107,0.167,0.107,0.167c-0.065-0.094-6.689-9.472-30.104-16.6
					c-4.179-1.277-6.538-5.697-5.265-9.88C59.06,196.841,63.482,194.482,67.666,195.757z" style="fill:#F7C8B6;"></path>
			</g>
			<g>
				<path d="M96.522,199.952c0,0,6.08,12.898,6.062,24.43" style="fill:#B2C5CF;"></path>
				<path d="M104.476,196.203c0.707,1.504,6.924,15.064,6.902,28.191c-0.006,4.858-3.95,8.789-8.809,8.781
					c-4.856-0.008-8.787-3.95-8.779-8.809c0.01-7.761-3.769-17.556-5.229-20.673l0.006,0.012c-2.072-4.393-0.189-9.631,4.205-11.705
					C97.166,189.928,102.404,191.812,104.476,196.203z" style="fill:#F7C8B6;"></path>
			</g>
			<path d="M94.144,235.185l5.139-1.739c6.737,14.048,36.209,15.395,36.209,15.395
				c18.036-0.088,27.657,21.772,27.657,21.772l4.251,10.638l-44.261-12.919c-2.078-0.609-3.922-1.844-5.279-3.535L94.144,235.185z" style="fill:#EBBEAD;"></path>
			<path d="M64.815,237.424c0.021,0.058,0.042,0.116,0.065,0.173c0.134,0.267,0.247,0.54,0.417,0.797
				c2.398,3.651,7.309,4.669,10.96,2.267c8.544-5.615,16.424-5.44,20.647-4.733c1.55-1.516,2.393-2.482,2.393-2.482
				s-8.673-7.341-19.293,0.376C71.229,240.199,66.558,240.354,64.815,237.424z M64.109,235.327c0.016,0.116,0.044,0.219,0.066,0.333
				c0.085,0.411,0.195,0.815,0.349,1.213c0.083,0.197,0.185,0.376,0.291,0.552c-0.413-1.116-0.646-1.92-0.709-2.153
				C64.107,235.289,64.105,235.307,64.109,235.327z" style="fill:#EBBEAD;"></path>
			<g>
				<path d="M112.954,265.373c-2.395,2.966-6.506,0.551-6.506,0.551s-2.371-2.075-2.02-8.926
					c2.329,12.548,12.389-11.159,13.966-21.805c1.382-9.313-2.618-7.182-3.653-6.492c3.574-4.362,6.038-3.534,6.038-3.534
					C132.476,231.398,120.524,255.982,112.954,265.373z" style="opacity:0.08;"></path>
			</g>
			<path d="M106.45,265.926c34.034,15.231,73.203,28.309,109.243,26.854
				c7.008,0.771,2.416-11.835,9.273-24.852c-37.656-10.406-70.458-23.195-104.186-42.76c0,0,5.502,1.292-1.641,24.067
				C112.972,268.887,106.45,265.926,106.45,265.926z" style="fill:#D7E6ED;"></path>
			<path d="M219.962,288.332c-0.573,2.996-1.536,4.746-4.269,4.447
				c-36.042,1.453-75.209-11.622-109.243-26.854c0,0,6.524,2.961,12.691-16.691c0.165-0.534,0.318-1.04,0.474-1.547
				C119.614,247.688,148.016,278.006,219.962,288.332z" style="fill:#C3D8E3;"></path>
			<path d="M61.105,196.659c0,0-7.605,13.952,24.755,15.317c0,0-26.717,4.311-28.318-7.456
				C57.542,204.518,56.538,197.889,61.105,196.659z" style="fill:#EBBEAD;"></path>
		</g>
		<path d="M87.912,195.504c0.723-1.914,6.678-4.124,6.678-4.124s-9.092,4.893,1.46,17.211
			C96.05,208.59,84.215,205.321,87.912,195.504z" style="fill:#EBBEAD;"></path>
	</g>
	<g>
		<g style="opacity:0.39;">
			<g>
				<path d="M122.171,247.199c1.295-5.53,6.068-19.554-1.391-22.032c0,0-6.032-2.054-12.928,17.004
					c-6.896,19.057-1.402,23.754-1.402,23.754S117.056,269.086,122.171,247.199z" style="fill:#FFFFFF;"></path>
				<path d="M176.339,283.858L123.14,268.33c-2.078-0.609-3.922-1.844-5.279-3.535l-27.607-34.464
					c-3.644-4.55-2.908-11.191,1.642-14.834c4.548-3.644,11.189-2.911,14.834,1.639l27.607,34.466
					c-1.354-1.693-3.199-2.926-5.279-3.53l53.195,15.526c5.598,1.635,8.807,7.494,7.173,13.088
					C187.795,282.281,181.938,285.492,176.339,283.858z" style="fill:#FFFFFF;"></path>
				<g>
					<path d="M103.008,229.369c0,0-14.811-6.034-31.109,4.679" style="fill:#FFFFFF;"></path>
					<path d="M100.02,236.697l0.083,0.034c-0.462-0.177-11.466-4.215-23.856,3.93
						c-3.651,2.403-8.562,1.387-10.962-2.265c-2.4-3.653-1.384-8.562,2.271-10.964c19.552-12.853,37.677-5.703,38.442-5.394
						c4.046,1.651,5.99,6.267,4.341,10.316C108.689,236.402,104.068,238.347,100.02,236.697z" style="fill:#FFFFFF;"></path>
				</g>
				<g>
					<path d="M100.201,225.683c0,0-12.695-10.219-39.496-5.294" style="fill:#FFFFFF;"></path>
					<path d="M95.241,231.851l0.107,0.083c-0.432-0.321-10.849-7.868-33.213-3.759
						c-4.301,0.789-8.424-2.056-9.213-6.354c-0.791-4.299,2.054-8.424,6.353-9.215c29.516-5.422,44.301,5.638,45.893,6.915
						c3.404,2.741,3.944,7.723,1.203,11.129C103.629,234.052,98.646,234.592,95.241,231.851z" style="fill:#FFFFFF;"></path>
				</g>
				<path d="M52.92,221.821c-0.281-1.524-0.084-3.018,0.448-4.356c-0.634,7.181,4.892,6.765,18.972,4.848
					c14.109-1.92,15.093,2.024,15.093,2.024c0.257,1.898-0.827,0.111,0,0c-5.375-1.076-15.55,2.05-25.301,3.84
					C57.834,228.964,53.711,226.12,52.92,221.821z" style="fill:#FFFFFF;"></path>
				<g>
					<path d="M65.36,203.329c27.391,8.343,34.442,19.878,34.442,19.878" style="fill:#FFFFFF;"></path>
					<path d="M67.666,195.757c29.422,8.96,38.01,21.881,38.89,23.323c2.279,3.733,1.104,8.604-2.627,10.885
						c-3.731,2.277-8.602,1.104-10.878-2.627c0.068,0.113,0.107,0.167,0.107,0.167c-0.065-0.094-6.689-9.472-30.104-16.6
						c-4.179-1.277-6.538-5.697-5.265-9.88C59.06,196.841,63.482,194.482,67.666,195.757z" style="fill:#FFFFFF;"></path>
				</g>
				<g>
					<path d="M96.522,199.952c0,0,6.08,12.898,6.062,24.43" style="fill:#FFFFFF;"></path>
					<path d="M104.476,196.203c0.707,1.504,6.924,15.064,6.902,28.191c-0.006,4.858-3.95,8.789-8.809,8.781
						c-4.856-0.008-8.787-3.95-8.779-8.809c0.01-7.761-3.769-17.556-5.229-20.673l0.006,0.012
						c-2.072-4.393-0.189-9.631,4.205-11.705C97.166,189.928,102.404,191.812,104.476,196.203z" style="fill:#FFFFFF;"></path>
				</g>
				<path d="M94.144,235.185l5.139-1.739c6.737,14.048,36.209,15.395,36.209,15.395
					c18.036-0.088,27.657,21.772,27.657,21.772l4.251,10.638l-44.261-12.919c-2.078-0.609-3.922-1.844-5.279-3.535L94.144,235.185z" style="fill:#FFFFFF;"></path>
				<path d="M64.815,237.424c0.021,0.058,0.042,0.116,0.065,0.173c0.134,0.267,0.247,0.54,0.417,0.797
					c2.398,3.651,7.309,4.669,10.96,2.267c8.544-5.615,16.424-5.44,20.647-4.733c1.55-1.516,2.393-2.482,2.393-2.482
					s-8.673-7.341-19.293,0.376C71.229,240.199,66.558,240.354,64.815,237.424z M64.109,235.327
					c0.016,0.116,0.044,0.219,0.066,0.333c0.085,0.411,0.195,0.815,0.349,1.213c0.083,0.197,0.185,0.376,0.291,0.552
					c-0.413-1.116-0.646-1.92-0.709-2.153C64.107,235.289,64.105,235.307,64.109,235.327z" style="fill:#FFFFFF;"></path>
				<g>
					<path d="M112.954,265.373c-2.395,2.966-6.506,0.551-6.506,0.551s-2.371-2.075-2.02-8.926
						c2.329,12.548,12.389-11.159,13.966-21.805c1.382-9.313-2.618-7.182-3.653-6.492c3.574-4.362,6.038-3.534,6.038-3.534
						C132.476,231.398,120.524,255.982,112.954,265.373z" style="opacity:0.08;fill:#FFFFFF;"></path>
				</g>
				<path d="M106.45,265.926c34.034,15.231,73.203,28.309,109.243,26.854
					c7.008,0.771,2.416-11.835,9.273-24.852c-37.656-10.406-70.458-23.195-104.186-42.76c0,0,5.502,1.292-1.641,24.067
					C112.972,268.887,106.45,265.926,106.45,265.926z" style="fill:#FFFFFF;"></path>
				<path d="M219.962,288.332c-0.573,2.996-1.536,4.746-4.269,4.447
					c-36.042,1.453-75.209-11.622-109.243-26.854c0,0,6.524,2.961,12.691-16.691c0.165-0.534,0.318-1.04,0.474-1.547
					C119.614,247.688,148.016,278.006,219.962,288.332z" style="fill:#FFFFFF;"></path>
				<path d="M61.105,196.659c0,0-7.605,13.952,24.755,15.317c0,0-26.717,4.311-28.318-7.456
					C57.542,204.518,56.538,197.889,61.105,196.659z" style="fill:#FFFFFF;"></path>
			</g>
			<path d="M87.912,195.504c0.723-1.914,6.678-4.124,6.678-4.124s-9.092,4.893,1.46,17.211
				C96.05,208.59,84.215,205.321,87.912,195.504z" style="fill:#FFFFFF;"></path>
		</g>
	</g>
</g>
<path d="M325.464,375.104c14.076-22.098,14.99-65.031-8.191-114.343
	c-9.016-13.512-24.615-19.617-24.615-19.617L274.027,234l-59.095-0.135l-9.048,3.203c-12.504,1.542-25.111,22.542-25.287,20.756
	c0,36.228-7.705,88.658-16.757,115.469c0,0,5.805,17.396,80.468,25.468C310.891,405.96,325.464,375.104,325.464,375.104z" style="fill:#C3D8E3;"></path>
<g>
	<path d="M314.437,258.247c-3.387-9.93-15.058-14.755-15.058-14.755l-29.616-11.811l-62.707,4.153
		l4.813,0.745c-18.307,0-29.957,21.622-29.957,21.622c-2.458,41.102,5.191,50.06-6.257,109.605c0,0,0.655,2.136,3.076,4.361
		c8.679,9.328,35.329,16.119,66.869,16.119c0.657,0,1.305-0.01,1.956-0.014c4.452-2.346,9.063-7.607,9.063-19.389V240.329h5.829
		v129.648c0,11.242,2.774,15.453,6.319,17.029c27.018-3.086,46.434-11.412,46.681-21.225
		C323.617,348.469,334.171,311.721,314.437,258.247z" style="fill:#D7E6ED;"></path>
	<g>
		<path d="M314.437,258.247c-3.387-9.93-15.058-14.755-15.058-14.755l-29.616-11.811
			l-62.707,4.153l4.813,0.745c-18.307,0-29.957,21.622-29.957,21.622c-2.458,41.102,5.191,50.06-6.257,109.605
			c0,0,0.655,2.136,3.076,4.361c8.679,9.328,35.329,16.119,66.869,16.119c0.657,0,1.305-0.01,1.956-0.014
			c4.452-2.346,9.063-7.607,9.063-19.389V240.329h5.829v129.648c0,11.242,2.774,15.453,6.319,17.029
			c27.018-3.086,46.434-11.412,46.681-21.225C323.617,348.469,334.171,311.721,314.437,258.247z" style="opacity:0.39;fill:#FFFFFF;"></path>
	</g>
</g>
<g>
	<g style="opacity:0.51;">
		<g>
			<circle r="4.858" cy="290.442" cx="242.066" style="opacity:0.13;"></circle>
		</g>
		<circle r="4.858" cy="284.466" cx="242.066"></circle>
	</g>
</g>
<g>
	<g style="opacity:0.51;">
		<g>
			<circle r="4.859" cy="324.986" cx="242.066" style="opacity:0.13;"></circle>
		</g>
		<circle r="4.859" cy="319.01" cx="242.066"></circle>
	</g>
</g>
<g>
	<g style="opacity:0.51;">
		<g>
			<ellipse ry="4.858" rx="5.52" cy="357.343" cx="241.092" style="opacity:0.13;"></ellipse>
		</g>
		<ellipse ry="4.858" rx="5.52" cy="351.366" cx="241.092"></ellipse>
	</g>
</g>
<path d="M265.971,243.618h-36.614c-2.209,0-4-1.791-4-4s1.791-4,4-4h36.614c2.209,0,4,1.791,4,4
	S268.18,243.618,265.971,243.618z" style="fill:#BF4A4A;"></path>
<path d="M266.751,237.697h-37.395c-0.829,0-1.5-0.671-1.5-1.5s0.671-1.5,1.5-1.5h37.395
	c0.828,0,1.5,0.671,1.5,1.5S267.579,237.697,266.751,237.697z" style="opacity:0.42;fill:#FF7878;"></path>
<path d="M322.197,218.869c0,0-46.205,57.016-125.08,41.968c-41.263-7.866-33.902-46.522-12.572-40.887
	C205.878,225.586,322.197,218.869,322.197,218.869z" style="opacity:0.08;"></path>
<path d="M255.82,144.5c-27.709,3.389-63.211,15.478-77.016,35.747l-12.749-22.592l77.02-35.749L255.82,144.5z" style="fill:#DAE8F0;"></path>
<g>
	<path d="M180.97,249.958c-23.014-11.004-26.428-34.673-27.761-59.474
		c-1.779-33.06,7.638-62.809,80.213-74.49c49.462-7.96,80.251,18.587,95.089,50.926c16.519,36.01-9.958,75.42-73.828,86.141
		C224.843,258.076,196.683,257.471,180.97,249.958z" style="fill:#F7C8B6;"></path>
	<g>
		<path d="M180.97,249.958c-23.014-11.004-26.428-34.673-27.761-59.474
			c-1.779-33.06,7.638-62.809,80.213-74.49c49.462-7.96,80.251,18.587,95.089,50.926c16.519,36.01-9.958,75.42-73.828,86.141
			C224.843,258.076,196.683,257.471,180.97,249.958z" style="opacity:0.39;fill:#FFFFFF;"></path>
	</g>
</g>
<g>
	<g>
		<g style="opacity:0.08;">
			<path d="M173.45,179.996c4.191,12.293,19.58,18.893,34.362,14.741c14.781-4.152,23.365-17.477,19.171-29.771
				c-4.195-12.297-19.582-18.898-34.362-14.745C177.834,154.373,169.253,167.703,173.45,179.996z"></path>
			<path d="M198.846,196.979C198.846,196.979,198.846,196.979,198.846,196.979c-12.359,0-22.945-6.695-26.342-16.66
				c-1.885-5.52-1.36-11.533,1.478-16.931c3.517-6.69,10.212-11.84,18.369-14.13c3.021-0.849,6.129-1.279,9.238-1.279
				c12.355,0,22.941,6.697,26.341,16.665c1.883,5.52,1.357,11.532-1.481,16.928c-3.517,6.688-10.211,11.838-18.366,14.128
				C205.062,196.548,201.954,196.979,198.846,196.979z M201.589,149.979c-2.926,0-5.852,0.405-8.697,1.205
				c-7.63,2.142-13.877,6.929-17.14,13.135c-2.58,4.907-3.061,10.359-1.356,15.354c3.122,9.155,12.947,15.306,24.449,15.306h0.001
				c2.925,0,5.851-0.405,8.696-1.204c7.628-2.143,13.875-6.93,17.137-13.133c2.58-4.905,3.062-10.357,1.359-15.352
				C222.914,156.132,213.088,149.979,201.589,149.979z"></path>
		</g>
	</g>
	<g>
		<path d="M173.45,174.02c4.191,12.292,19.58,18.892,34.362,14.741c14.781-4.151,23.365-17.476,19.171-29.771
			c-4.195-12.297-19.582-18.898-34.362-14.745C177.834,148.396,169.253,161.727,173.45,174.02z" style="fill:#FFFFFF;"></path>
		<path d="M198.846,191.002C198.846,191.002,198.846,191.002,198.846,191.002
			c-12.359,0-22.945-6.695-26.342-16.659c-1.885-5.52-1.36-11.533,1.478-16.931c3.517-6.69,10.212-11.84,18.369-14.13
			c3.021-0.849,6.129-1.279,9.238-1.279c12.355,0,22.941,6.697,26.341,16.665c1.883,5.52,1.357,11.532-1.481,16.928
			c-3.517,6.688-10.211,11.837-18.366,14.128C205.062,190.572,201.954,191.002,198.846,191.002z M201.589,144.003
			c-2.926,0-5.852,0.405-8.697,1.205c-7.63,2.142-13.877,6.929-17.14,13.135c-2.58,4.907-3.061,10.359-1.356,15.354
			c3.122,9.154,12.947,15.305,24.449,15.305c0,0,0,0,0.001,0c2.925,0,5.851-0.405,8.696-1.204
			c7.628-2.142,13.875-6.929,17.137-13.133c2.58-4.905,3.062-10.357,1.359-15.352C222.914,150.156,213.088,144.003,201.589,144.003z" style="fill:#E4BC96;"></path>
	</g>
</g>
<path d="M197.452,163.371c1.492,4.371,6.354,6.878,10.869,5.613c4.51-1.267,6.962-5.831,5.472-10.201
	c-1.49-4.362-6.357-6.871-10.869-5.605C198.415,154.442,195.962,159.006,197.452,163.371z"></path>
<path d="M317.684,195.57c0.979,5.47-3.118,10.622-9.151,11.506
	c-6.03,0.884-11.714-2.831-12.686-8.301c-0.976-5.47,3.118-10.624,9.153-11.508C311.03,186.382,316.707,190.1,317.684,195.57z" style="opacity:0.24;fill:#BF4A4A;"></path>
<path d="M334.47,150.002c4.437,10.305,1.017,21.147-7.646,24.213c-8.659,3.065-19.28-2.803-23.713-13.11
	c-4.436-10.305-1.01-21.146,7.649-24.211C319.424,133.829,330.038,139.697,334.47,150.002z" style="fill:#F7D9CD;"></path>
<g>
	<g>
		<g style="opacity:0.08;">
			<path d="M241.207,164.054c4.944,12.062,21.147,17.729,36.189,12.659c15.05-5.071,23.234-18.96,18.293-31.021
				c-4.94-12.066-21.14-17.733-36.189-12.662C244.454,138.102,236.269,151.988,241.207,164.054z"></path>
			<path d="M266.154,179.57L266.154,179.57c-11.948,0-22.104-5.941-25.873-15.137c-2.171-5.304-1.985-11.247,0.521-16.733
				c3.234-7.079,9.933-12.771,18.377-15.618c3.762-1.268,7.653-1.91,11.567-1.91c11.947,0,22.101,5.943,25.867,15.141
				c2.172,5.301,1.987,11.242-0.519,16.729c-3.234,7.08-9.934,12.773-18.381,15.62C273.957,178.928,270.066,179.57,266.154,179.57z
				 M270.748,132.172c-3.696,0-7.373,0.607-10.929,1.806c-7.923,2.671-14.191,7.975-17.197,14.553
				c-2.275,4.979-2.449,10.357-0.49,15.144c3.46,8.441,12.889,13.895,24.022,13.895c3.694,0,7.37-0.607,10.923-1.805
				c7.926-2.67,14.195-7.976,17.2-14.555c2.274-4.978,2.447-10.355,0.486-15.14C291.307,137.627,281.88,132.172,270.748,132.172z"></path>
		</g>
	</g>
	<g>
		<path d="M241.207,158.078c4.944,12.062,21.147,17.729,36.189,12.66c15.05-5.072,23.234-18.96,18.293-31.022
			c-4.94-12.066-21.14-17.733-36.189-12.662C244.454,132.125,236.269,146.012,241.207,158.078z" style="fill:#FFFFFF;"></path>
		<path d="M266.155,173.594C266.155,173.594,266.155,173.594,266.155,173.594
			c-11.948,0-22.104-5.942-25.874-15.137c-2.171-5.304-1.985-11.247,0.522-16.734c3.234-7.078,9.933-12.771,18.377-15.617
			c3.762-1.268,7.653-1.91,11.567-1.91c11.947,0,22.101,5.943,25.867,15.141c2.172,5.301,1.987,11.242-0.519,16.729
			c-3.233,7.08-9.934,12.773-18.381,15.62C273.957,172.952,270.067,173.594,266.155,173.594z M270.748,126.196
			c-3.696,0-7.373,0.607-10.929,1.806c-7.923,2.671-14.191,7.975-17.197,14.553c-2.275,4.979-2.449,10.357-0.49,15.145
			c3.46,8.441,12.889,13.895,24.023,13.896l0,0c3.694,0,7.369-0.607,10.922-1.805c7.926-2.671,14.195-7.976,17.2-14.556
			c2.274-4.979,2.447-10.355,0.486-15.14C291.307,131.651,281.88,126.196,270.748,126.196z" style="fill:#E4BC96;"></path>
	</g>
</g>
<path d="M251.186,151.761c1.805,4.363,6.998,6.628,11.596,5.06c4.602-1.566,6.866-6.365,5.063-10.729
	c-1.805-4.359-6.996-6.618-11.596-5.054C251.649,142.604,249.38,147.404,251.186,151.761z"></path>
<path d="M282.424,201.996c2.325,7.316-8.746,24.743-27.65,29.675c-18.907,4.93-38.491-4.5-40.809-11.815
	c-2.323-7.318,15.243-4.249,34.149-9.181C267.025,205.745,280.105,194.679,282.424,201.996z" style="fill:#C73636;"></path>
<g>
	<ellipse ry="18.442" rx="18.595" cy="134.472" cx="401.174" style="fill:#FFBF00;"></ellipse>
	<g>
		<g style="opacity:0.38;">
			<g transform="matrix(0.9925,0.1224,-0.1224,0.9925,9.149,-20.5468)">
				
					<ellipse ry="2.436" rx="2.544" cy="100.057" cx="401.119" style="opacity:0.0625;fill:#FF4000;" transform="matrix(0.1225 -0.9925 0.9925 0.1225 252.6971 485.9054)"></ellipse>
			</g>
			<g transform="matrix(0.9925,0.1222,-0.1222,0.9925,9.1306,-20.5114)">
				
					<ellipse ry="2.344" rx="2.448" cy="100.105" cx="401.114" style="opacity:0.125;fill:#FF4000;" transform="matrix(0.1223 -0.9925 0.9925 0.1223 252.7217 485.972)"></ellipse>
			</g>
			<g transform="matrix(0.9925,0.1222,-0.1222,0.9925,9.1288,-20.5081)">
				
					<ellipse ry="2.253" rx="2.353" cy="100.111" cx="401.115" style="opacity:0.1875;fill:#FF4000;" transform="matrix(0.1222 -0.9925 0.9925 0.1222 252.7198 485.9788)"></ellipse>
			</g>
			<g transform="matrix(0.9925,0.1224,-0.1224,0.9925,9.1459,-20.5408)">
				
					<ellipse ry="2.161" rx="2.259" cy="100.065" cx="401.125" style="opacity:0.25;fill:#FF4000;" transform="matrix(0.1226 -0.9925 0.9925 0.1226 252.6526 485.9023)"></ellipse>
			</g>
			<g transform="matrix(0.9925,0.1224,-0.1224,0.9925,9.1447,-20.5384)">
				
					<ellipse ry="2.071" rx="2.161" cy="100.07" cx="401.124" style="opacity:0.3125;fill:#FF4000;" transform="matrix(0.1224 -0.9925 0.9925 0.1224 252.6898 485.9216)"></ellipse>
			</g>
			<g transform="matrix(0.9925,0.1223,-0.1223,0.9925,9.1432,-20.5358)">
				
					<ellipse ry="1.98" rx="2.068" cy="100.078" cx="401.13" style="opacity:0.375;fill:#FF4000;" transform="matrix(0.1223 -0.9925 0.9925 0.1223 252.7374 485.9546)"></ellipse>
			</g>
			<g transform="matrix(0.9925,0.1223,-0.1223,0.9925,9.1364,-20.5227)">
				
					<ellipse ry="1.89" rx="1.972" cy="100.092" cx="401.127" style="opacity:0.4375;fill:#FF4000;" transform="matrix(0.1223 -0.9925 0.9925 0.1223 252.7239 485.9642)"></ellipse>
			</g>
			<g transform="matrix(0.9925,0.1223,-0.1223,0.9925,9.1401,-20.5297)">
				
					<ellipse ry="1.797" rx="1.877" cy="100.086" cx="401.131" style="opacity:0.5;fill:#FF4000;" transform="matrix(0.1223 -0.9925 0.9925 0.1223 252.7423 485.9675)"></ellipse>
			</g>
			<g transform="matrix(0.9925,0.1226,-0.1226,0.9925,9.1622,-20.5723)">
				
					<ellipse ry="1.707" rx="1.781" cy="100.025" cx="401.14" style="opacity:0.5625;fill:#FF4000;" transform="matrix(0.1225 -0.9925 0.9925 0.1225 252.7092 485.8838)"></ellipse>
			</g>
			<g transform="matrix(0.9925,0.1225,-0.1225,0.9925,9.1553,-20.5589)">
				
					<ellipse ry="1.616" rx="1.687" cy="100.047" cx="401.14" style="opacity:0.625;fill:#FF4000;" transform="matrix(0.1227 -0.9924 0.9924 0.1227 252.6301 485.8801)"></ellipse>
			</g>
			<g transform="matrix(0.9925,0.1225,-0.1225,0.9925,9.1541,-20.5567)">
				
					<ellipse ry="1.526" rx="1.592" cy="100.049" cx="401.143" style="opacity:0.6875;fill:#FF4000;" transform="matrix(0.1224 -0.9925 0.9925 0.1224 252.7421 485.9284)"></ellipse>
			</g>
			<g transform="matrix(0.9925,0.1224,-0.1224,0.9925,9.1528,-20.5541)">
				
					<ellipse ry="1.434" rx="1.496" cy="100.059" cx="401.146" style="opacity:0.75;fill:#FF4000;" transform="matrix(0.1224 -0.9925 0.9925 0.1224 252.7434 485.943)"></ellipse>
			</g>
			<g transform="matrix(0.9924,0.1228,-0.1228,0.9924,9.1817,-20.6097)">
				
					<ellipse ry="1.343" rx="1.4" cy="99.976" cx="401.163" style="opacity:0.8125;fill:#FF4000;" transform="matrix(0.1227 -0.9924 0.9924 0.1227 252.7015 485.833)"></ellipse>
			</g>
			<g transform="matrix(0.9924,0.1228,-0.1228,0.9924,9.1822,-20.6106)">
				
					<ellipse ry="1.251" rx="1.307" cy="99.974" cx="401.165" style="opacity:0.875;fill:#FF4000;" transform="matrix(0.123 -0.9924 0.9924 0.123 252.6248 485.8038)"></ellipse>
			</g>
			<g transform="matrix(0.9925,0.1224,-0.1224,0.9925,9.1474,-20.5439)">
				
					<ellipse ry="1.162" rx="1.211" cy="100.072" cx="401.15" style="opacity:0.9375;fill:#FF4000;" transform="matrix(0.1221 -0.9925 0.9925 0.1221 252.827 485.9939)"></ellipse>
			</g>
			<g transform="matrix(0.9924,0.1228,-0.1228,0.9924,9.1833,-20.6128)">
				
					<ellipse ry="1.069" rx="1.116" cy="99.974" cx="401.17" style="fill:#FF4000;" transform="matrix(-1.793345e-04 1 -1 -1.793345e-04 501.2164 -301.1783)"></ellipse>
			</g>
		</g>
	</g>
	<g>
		
			<radialGradient gradientUnits="userSpaceOnUse" gradientTransform="matrix(2.6627 0 0 -2.6627 337.3698 1315.0585)" r="1.0003" cy="445.8572" cx="21.3418" id="SVGID_1_">
			<stop style="stop-color:#599F00" offset="0"></stop>
			<stop style="stop-color:#00FF00" offset="1"></stop>
		</radialGradient>
		<path d="M391.554,127.697v0.526c0,0,1.628,0.629,1.994,1.418c0.37,0.789,0.157,0.892,0.157,0.892
			h0.528c0,0,0.368-0.892,0.895-0.998c0.523-0.104,0.575-0.473,0.629-0.735c0.052-0.263,0.578-0.895,0.841-0.946s0-0.84,0.207-1.052
			c0.211-0.209-0.47-0.054-0.787-0.263c-0.316-0.209-1.155-0.787-1.05-1.367h-0.37c0,0-1.153,0.789-1.364,1.367
			C393.023,127.117,392.132,127.697,391.554,127.697z" style="fill:url(#SVGID_1_);"></path>
		<g>
			<path d="M391.554,127.697v0.526c0,0,1.628,0.629,1.994,1.418
				c0.37,0.789,0.157,0.892,0.157,0.892h0.528c0,0,0.368-0.892,0.895-0.998c0.523-0.104,0.575-0.473,0.629-0.735
				c0.052-0.263,0.578-0.895,0.841-0.946s0-0.84,0.207-1.052c0.211-0.209-0.47-0.054-0.787-0.263
				c-0.316-0.209-1.155-0.787-1.05-1.367h-0.37c0,0-1.153,0.789-1.364,1.367C393.023,127.117,392.132,127.697,391.554,127.697z" style="opacity:0.75;fill:#007300;"></path>
		</g>
	</g>
	<ellipse ry="0.841" rx="0.736" cy="127.697" cx="394.233" style="fill:#FFFFE0;"></ellipse>
	<path d="M394.968,125.173c0,0-0.033,1.116,1.837,1.629C396.805,126.802,394.446,126.908,394.968,125.173z" style="fill:#006B33;"></path>
	<g>
		<g style="opacity:0.41;">
			<path d="M394.968,125.173h-0.031c0.008,0.012,0.018,0.026,0.025,0.04
				C394.964,125.199,394.964,125.185,394.968,125.173z M391.554,127.934v0.289c0,0,1.195,0.464,1.769,1.092
				c-0.025-0.054-0.047-0.11-0.083-0.171C392.975,128.627,392.117,128.183,391.554,127.934z M396.751,126.685
				c0,0.068,0.002,0.138,0.004,0.206c0.012-0.036,0.03-0.064,0.05-0.088C396.881,126.729,396.841,126.699,396.751,126.685z
				 M396.617,127.354c-0.293,0.054-0.874,0.684-0.932,0.946s-0.118,0.629-0.699,0.737c-0.584,0.105-0.99,0.996-0.99,0.996h-0.293
				c0.136,0.43,0.002,0.498,0.002,0.498h0.528c0,0,0.368-0.892,0.895-0.998c0.523-0.104,0.575-0.472,0.629-0.735
				c0.052-0.263,0.578-0.895,0.841-0.946c0.153-0.032,0.127-0.312,0.123-0.585C396.697,127.315,396.667,127.346,396.617,127.354z" style="fill:#006B33;"></path>
		</g>
	</g>
	<g>
		<path d="M409.404,117.934c3.006,2.765,4.873,6.625,4.873,10.898
			c0,8.409-7.224,15.227-16.134,15.227c-7.366,0-13.572-4.657-15.506-11.02c-0.036,0.474-0.06,0.952-0.06,1.432
			c0,10.187,8.324,18.442,18.596,18.442c10.269,0,18.595-8.257,18.595-18.442C419.769,127.219,415.542,120.946,409.404,117.934z" style="opacity:0.15;fill:#E87C00;"></path>
	</g>
</g>
<g>
	<path d="M384.655,75.281c0.801,2.193-4.032,2.265-5.904,0.875c-1.872-1.39-2.265-4.034-0.874-5.906
		c1.39-1.873,10.121-3.821,8.51-2.136C383.891,70.723,383.289,71.531,384.655,75.281z" style="fill:#00DF6A;"></path>
	<path d="M389.354,75.155c2.283,4.893,2.086,10.393-1.437,15.142c-5.639,7.596-16.629,8.988-24.543,3.111
		c-7.915-5.876-9.76-16.797-4.12-24.392c3.512-4.733,8.703-6.514,14.03-5.763c3.219,0.456,5.478,2.542,8.071,5.932
		C383.604,72.115,387.986,72.217,389.354,75.155z" style="fill:#FF371F;"></path>
	<path d="M379.132,87.966c0,0,7.788-5.05,6.653-12.721c-0.149-0.743-0.649-4.711,3.569-0.09
		c-1.37-2.936-5.751-3.038-8-5.972C381.354,69.181,389.701,79.819,379.132,87.966z" style="fill:#D92F1A;"></path>
	<g>
		<path d="M389.354,75.155c-0.741-1.589-2.366-2.351-4.06-3.177
			c0.952,4.275,0.182,8.789-2.52,12.424c-5.174,6.97-15.469,8.092-22.996,2.502c-1.134-0.843-2.146-1.795-3.022-2.823
			c1.094,3.576,3.333,6.885,6.615,9.323c7.917,5.876,18.905,4.484,24.544-3.111C391.44,85.546,391.638,80.046,389.354,75.155z" style="opacity:0.28;fill:#D92F1A;"></path>
	</g>
</g>
<g>
	<path d="M276.647,4.679c-1.494,0.944-3.011,2.229-3.942,2.502c0,0-8.123,3.241-7.814,12.14
		c0.289,8.334,9.711,15.209,17.119,16.418c4.961,0.807,10.961-0.398,11.773-4.151c0.809-3.757,5.047-7.644,3.675-17.453
		c-1.372-9.807-9.563-14.346-17.856-10.998C279.6,3.139,278.147,3.735,276.647,4.679z" style="fill:#FFB700;"></path>
	<g>
		<path d="M279.6,3.139c0,0,2.479,0.091,0.984,1.036c-0.646,0.404-3.99,1.506-4.588,1.928
			c4.895,0.307,8.576,2.984,11.663,7.777c4.87,7.564,3.372,17.209-3.354,21.544c-0.273,0.175-0.552,0.338-0.832,0.492
			c4.607,0.375,9.569-0.937,10.307-4.329c0.809-3.757,5.047-7.644,3.675-17.453C296.084,4.328,287.893-0.211,279.6,3.139z" style="opacity:0.03;fill:#8F0000;"></path>
	</g>
	<g>
		<path d="M284.05,5.743c-1.655-0.275-3.128,0.004-4.413,0.587
			c0.852-0.994,1.791-1.986,3.068-2.807c0.893-0.578-6.063,2.05-8.736,3.611c-2.674,1.562-6.654,5.917-5.762,5.341
			c1.446-0.93,4.146-0.773,6.602-1.811c-0.109,0.155-0.211,0.309-0.309,0.456c0.273-0.243,0.564-0.484,0.871-0.721
			c0.125-0.063,0.25-0.129,0.372-0.203c0.44-0.257,0.841-0.558,1.211-0.885c2.013-1.205,4.472-2.016,7.222-1.567
			c4.675,0.761,7.711,3.6,9.468,6.388C292.301,10.866,289.353,6.627,284.05,5.743z" style="opacity:0.14;fill:#8F0000;"></path>
	</g>
	<path d="M275.666,10.143c0,0-1.712-2.217-2.133-2.871c-0.416-0.651-1.834-1.863-1.91-2.329l1.678-1.118
		c0.332,0.118,0.646,1.779,0.98,2.562c0.334,0.779,1.031,3.002,1.453,3.442L275.666,10.143z" style="fill:#00CF4D;"></path>
</g>
<g>
	<g transform="matrix(-0.5993,-0.8005,0.8005,-0.5993,74.9359,68.4232)">
		
			<ellipse ry="16.404" rx="15.691" cy="91.88" cx="-21.778" style="fill:#79D3F5;" transform="matrix(-2.547107e-06 1 -1 -2.547107e-06 70.102 113.6579)"></ellipse>
	</g>
	<ellipse ry="12.45" rx="12.602" cy="27.804" cx="160.144" style="fill:#7FDCFF;"></ellipse>
	
		<radialGradient gradientUnits="userSpaceOnUse" gradientTransform="matrix(-3.858 -2.9893 2.9893 -3.858 -1404.1265 1826.5656)" r="0.9995" cy="483.8992" cx="-26.7485" id="SVGID_2_">
		<stop style="stop-color:#004F7F" offset="0"></stop>
		<stop style="stop-color:#004F7F" offset="0.01"></stop>
		<stop style="stop-color:#10001F" offset="1"></stop>
	</radialGradient>
	<path d="M153.155,38.97c0,0,1.452,1.285-0.197,2.781c-1.649,1.494-2.043,0.534-3.074,0.391
		c-1.03-0.146-1.255-0.484-1.494-1.649c-0.241-1.164-1.112-1.514-1.791-2.53c-0.679-1.016,0.426-0.972-0.795-1.92
		c-1.223-0.948-0.605-2.588,0.435-3.088c1.04-0.5,1.49-1.291,2.771-0.625c1.277,0.664,2.444,0.424,1.847,2.245
		c-0.596,1.823,2.062,1.759,2.548,1.974c0.488,0.213,0.375,0.779-0.327,1.052C152.375,37.874,153.155,38.97,153.155,38.97z" style="fill:url(#SVGID_2_);"></path>
</g>
<g>
	<path d="M107.126,60.677c0,0-13.078,3.223-5.251,13.817c7.829,10.589,16.026,10.683,20.078,2.211
		C126.004,68.229,127.018,55.059,107.126,60.677z" style="fill:#FF0080;"></path>
	<path d="M109.269,57.599c0,0-2.261,5.03-10.209,1.91c0,0,3.632,5.022,9.765,2.594
		c0,0-0.188,3.245,3.972,2.99c0,0-3.301-3.082-0.578-4.096c4.171-1.552,4.247-1.323,5.773-5.721
		C117.99,55.277,116.767,60.137,109.269,57.599z" style="fill:#3FFFE0;"></path>
	<g>
		<g style="opacity:0.59;">
			<path d="M117.891,55.566c0.074-0.179,0.102-0.289,0.102-0.289
				C117.956,55.374,117.922,55.47,117.891,55.566z M109.269,57.599c0,0-0.06,3.962,4.213,2.93c2.867-1.063,3.142-1.34,4.407-4.966
				C117.482,56.568,115.642,59.759,109.269,57.599z" style="fill:#3AE8CC;"></path>
		</g>
	</g>
</g>
<g>
	<ellipse ry="18.444" rx="18.596" cy="133.737" cx="87.57" style="fill:#FFBF00;"></ellipse>
	<g>
		<g style="opacity:0.38;">
			<g transform="matrix(0.9925,0.1225,-0.1225,0.9925,7.9246,-1.2788)">
				
					<ellipse ry="2.434" rx="2.544" cy="118.433" cx="88.65" style="opacity:0.0625;fill:#FF4000;" transform="matrix(0.1225 -0.9925 0.9925 0.1225 -39.7482 191.9117)"></ellipse>
			</g>
			<g transform="matrix(0.9925,0.1225,-0.1225,0.9925,7.9241,-1.2789)">
				
					<ellipse ry="2.343" rx="2.448" cy="118.435" cx="88.651" style="opacity:0.125;fill:#FF4000;" transform="matrix(0.1226 -0.9925 0.9925 0.1226 -39.7562 191.9023)"></ellipse>
			</g>
			<g transform="matrix(0.9925,0.1224,-0.1224,0.9925,7.9217,-1.2788)">
				
					<ellipse ry="2.253" rx="2.355" cy="118.441" cx="88.653" style="opacity:0.1875;fill:#FF4000;" transform="matrix(0.1224 -0.9925 0.9925 0.1224 -39.7455 191.9364)"></ellipse>
			</g>
			<g transform="matrix(0.9925,0.1224,-0.1224,0.9925,7.9211,-1.2789)">
				
					<ellipse ry="2.161" rx="2.259" cy="118.443" cx="88.654" style="opacity:0.25;fill:#FF4000;" transform="matrix(0.1223 -0.9925 0.9925 0.1223 -39.7449 191.9418)"></ellipse>
			</g>
			<g transform="matrix(0.9925,0.1224,-0.1224,0.9925,7.9221,-1.2791)">
				
					<ellipse ry="2.07" rx="2.163" cy="118.443" cx="88.657" style="opacity:0.3125;fill:#FF4000;" transform="matrix(0.1223 -0.9925 0.9925 0.1223 -39.7416 191.945)"></ellipse>
			</g>
			<g transform="matrix(0.9925,0.1226,-0.1226,0.9925,7.9353,-1.2806)">
				
					<ellipse ry="1.978" rx="2.068" cy="118.43" cx="88.67" style="opacity:0.375;fill:#FF4000;" transform="matrix(0.1227 -0.9924 0.9924 0.1227 -39.7421 191.903)"></ellipse>
			</g>
			<g transform="matrix(0.9925,0.1224,-0.1224,0.9925,7.9164,-1.2788)">
				
					<ellipse ry="1.888" rx="1.974" cy="118.446" cx="88.657" style="opacity:0.4375;fill:#FF4000;" transform="matrix(0.1223 -0.9925 0.9925 0.1223 -39.7434 191.9497)"></ellipse>
			</g>
			<g transform="matrix(0.9925,0.1226,-0.1226,0.9925,7.9327,-1.2806)">
				
					<ellipse ry="1.797" rx="1.879" cy="118.432" cx="88.672" style="opacity:0.5;fill:#FF4000;" transform="matrix(0.1225 -0.9925 0.9925 0.1225 -39.7344 191.9223)"></ellipse>
			</g>
			<g transform="matrix(0.9925,0.1226,-0.1226,0.9925,7.9346,-1.2809)">
				
					<ellipse ry="1.705" rx="1.783" cy="118.432" cx="88.676" style="opacity:0.5625;fill:#FF4000;" transform="matrix(0.1226 -0.9925 0.9925 0.1226 -39.7308 191.9253)"></ellipse>
			</g>
			<g transform="matrix(0.9925,0.1223,-0.1223,0.9925,7.9125,-1.2788)">
				
					<ellipse ry="1.615" rx="1.687" cy="118.454" cx="88.661" style="opacity:0.625;fill:#FF4000;" transform="matrix(0.1223 -0.9925 0.9925 0.1223 -39.7451 191.9665)"></ellipse>
			</g>
			<g transform="matrix(0.9925,0.1225,-0.1225,0.9925,7.929,-1.2806)">
				
					<ellipse ry="1.524" rx="1.592" cy="118.441" cx="88.676" style="opacity:0.6875;fill:#FF4000;" transform="matrix(0.1224 -0.9925 0.9925 0.1224 -39.729 191.9509)"></ellipse>
			</g>
			<g transform="matrix(0.9925,0.1226,-0.1226,0.9925,7.931,-1.281)">
				
					<ellipse ry="1.432" rx="1.498" cy="118.434" cx="88.68" style="opacity:0.75;fill:#FF4000;" transform="matrix(0.1227 -0.9924 0.9924 0.1227 -39.7407 191.9107)"></ellipse>
			</g>
			<g transform="matrix(0.9925,0.1226,-0.1226,0.9925,7.9304,-1.281)">
				
					<ellipse ry="1.341" rx="1.402" cy="118.436" cx="88.681" style="opacity:0.8125;fill:#FF4000;" transform="matrix(0.1227 -0.9924 0.9924 0.1227 -39.7428 191.9116)"></ellipse>
			</g>
			<g transform="matrix(0.9925,0.1225,-0.1225,0.9925,7.9266,-1.2808)">
				
					<ellipse ry="1.251" rx="1.309" cy="118.443" cx="88.681" style="opacity:0.875;fill:#FF4000;" transform="matrix(0.1224 -0.9925 0.9925 0.1224 -39.7222 191.9651)"></ellipse>
			</g>
			<g transform="matrix(0.9925,0.1225,-0.1225,0.9925,7.9255,-1.2808)">
				
					<ellipse ry="1.16" rx="1.213" cy="118.445" cx="88.682" style="opacity:0.9375;fill:#FF4000;" transform="matrix(0.1224 -0.9925 0.9925 0.1224 -39.7229 191.9689)"></ellipse>
			</g>
			<g transform="matrix(0.9925,0.1225,-0.1225,0.9925,7.9243,-1.2808)">
				
					<ellipse ry="1.068" rx="1.118" cy="118.445" cx="88.683" style="fill:#FF4000;" transform="matrix(-5.750259e-05 1 -1 -5.750259e-05 207.1331 29.7685)"></ellipse>
			</g>
		</g>
	</g>
	<g>
		
			<radialGradient gradientUnits="userSpaceOnUse" gradientTransform="matrix(2.6631 0 0 -2.6631 23.768 1314.5208)" r="0.9998" cy="445.8647" cx="21.3399" id="SVGID_3_">
			<stop style="stop-color:#599F00" offset="0"></stop>
			<stop style="stop-color:#00FF00" offset="1"></stop>
		</radialGradient>
		<path d="M77.952,126.959v0.526c0,0,1.627,0.629,1.996,1.42c0.367,0.789,0.157,0.893,0.157,0.893
			h0.526c0,0,0.367-0.893,0.895-0.996c0.524-0.105,0.578-0.472,0.629-0.737c0.052-0.263,0.578-0.893,0.841-0.946
			c0.263-0.052,0-0.841,0.211-1.052c0.209-0.209-0.474-0.052-0.789-0.261c-0.317-0.209-1.158-0.789-1.052-1.368h-0.371
			c0,0-1.155,0.789-1.365,1.368C79.424,126.382,78.53,126.959,77.952,126.959z" style="fill:url(#SVGID_3_);"></path>
		<g>
			<path d="M77.952,126.959v0.526c0,0,1.627,0.629,1.996,1.42
				c0.367,0.789,0.157,0.893,0.157,0.893h0.526c0,0,0.367-0.893,0.895-0.996c0.524-0.105,0.578-0.472,0.629-0.737
				c0.052-0.263,0.578-0.893,0.841-0.946c0.263-0.052,0-0.841,0.211-1.052c0.209-0.209-0.474-0.052-0.789-0.261
				c-0.317-0.209-1.158-0.789-1.052-1.368h-0.371c0,0-1.155,0.789-1.365,1.368C79.424,126.382,78.53,126.959,77.952,126.959z" style="opacity:0.75;fill:#007300;"></path>
		</g>
	</g>
	<ellipse ry="0.841" rx="0.735" cy="126.96" cx="80.631" style="fill:#FFFFE0;"></ellipse>
	<path d="M81.367,124.438c0,0-0.034,1.115,1.838,1.629C83.207,126.067,80.845,126.171,81.367,124.438z" style="fill:#006B33;"></path>
	<g>
		<g style="opacity:0.41;">
			<path d="M81.367,124.438h-0.028c0.006,0.012,0.016,0.028,0.026,0.04
				C81.365,124.466,81.365,124.45,81.367,124.438z M77.952,127.199v0.287c0,0,1.195,0.464,1.769,1.093
				c-0.026-0.054-0.052-0.111-0.084-0.171C79.373,127.892,78.518,127.448,77.952,127.199z M83.149,125.95
				c0,0.068,0.002,0.14,0.004,0.207c0.012-0.036,0.03-0.067,0.054-0.089C83.279,125.994,83.239,125.966,83.149,125.95z
				 M83.016,126.619c-0.293,0.052-0.875,0.683-0.933,0.946c-0.06,0.261-0.117,0.629-0.701,0.735c-0.582,0.105-0.99,0.998-0.99,0.998
				h-0.291c0.135,0.43,0.002,0.498,0.002,0.498h0.526c0,0,0.367-0.893,0.895-0.996c0.524-0.105,0.578-0.472,0.629-0.737
				c0.052-0.263,0.578-0.892,0.841-0.946c0.153-0.03,0.127-0.313,0.124-0.584C83.098,126.577,83.066,126.609,83.016,126.619z" style="fill:#006B33;"></path>
		</g>
	</g>
	<g>
		<path d="M95.803,117.197c3.004,2.767,4.875,6.625,4.875,10.902
			c0,8.406-7.223,15.223-16.135,15.223c-7.367,0-13.572-4.657-15.506-11.018c-0.036,0.472-0.062,0.95-0.062,1.433
			c0,10.185,8.325,18.444,18.596,18.444c10.273,0,18.598-8.259,18.598-18.444C106.167,126.483,101.942,120.212,95.803,117.197z" style="opacity:0.15;fill:#E87C00;"></path>
	</g>
</g>
<g>
	<path d="M224.982,7.161c0,0-10.414-8.545-14.209,4.07c-3.791,12.614,1.042,19.231,10.253,17.402
		C230.243,26.802,241.396,19.727,224.982,7.161z" style="fill:#FF0080;"></path>
	<path d="M228.731,7.033c0,0-5.382,1.201-7.643-7.034c0,0-1.851,5.917,3.771,9.373
		c0,0-2.709,1.793-0.016,4.97c0,0,0.492-4.488,2.934-2.915c3.739,2.411,3.604,2.61,8.04,1.197
		C235.815,12.625,231.189,14.557,228.731,7.033z" style="fill:#3FFFE0;"></path>
	<g>
		<g style="opacity:0.59;">
			<path d="M235.526,12.719c0.185-0.048,0.291-0.094,0.291-0.094
				C235.717,12.657,235.622,12.689,235.526,12.719z M228.731,7.033c0,0-3.209,2.325,0.175,5.127c2.568,1.66,2.954,1.713,6.618,0.558
				C234.476,12.994,230.821,13.43,228.731,7.033z" style="fill:#3AE8CC;"></path>
		</g>
	</g>
</g>
<g>
	<g transform="matrix(-0.5993,-0.8005,0.8005,-0.5993,211.921,141.683)">
		
			<ellipse ry="16.404" rx="15.69" cy="161.782" cx="11.561" style="fill:#79D3F5;" transform="matrix(-8.745989e-06 1 -1 -8.745989e-06 173.3425 150.2226)"></ellipse>
	</g>
	<ellipse ry="12.45" rx="12.602" cy="32.476" cx="333.105" style="fill:#7FDCFF;"></ellipse>
	
		<radialGradient gradientUnits="userSpaceOnUse" gradientTransform="matrix(-3.8591 -2.9901 2.9901 -3.8591 -1231.5801 1831.7849)" r="1.0004" cy="483.9019" cx="-26.7402" id="SVGID_4_">
		<stop style="stop-color:#004F7F" offset="0"></stop>
		<stop style="stop-color:#004F7F" offset="0.01"></stop>
		<stop style="stop-color:#10001F" offset="1"></stop>
	</radialGradient>
	<path d="M326.117,43.641c0,0,1.452,1.287-0.197,2.781s-2.045,0.534-3.075,0.388
		c-1.03-0.145-1.255-0.484-1.494-1.647c-0.239-1.163-1.111-1.514-1.791-2.53c-0.681-1.016,0.429-0.974-0.793-1.92
		c-1.223-0.95-0.605-2.589,0.435-3.087s1.49-1.293,2.769-0.627c1.281,0.663,2.444,0.424,1.849,2.245
		c-0.598,1.823,2.062,1.761,2.548,1.974c0.486,0.215,0.375,0.781-0.324,1.054C325.337,42.545,326.117,43.641,326.117,43.641z" style="fill:url(#SVGID_4_);"></path>
</g>
<g style="opacity:0.24;">
	<path d="M255.135,186.478c-2.183-4.211-9.474-9.653-13.591-7.898c-4.114,1.753-7.871,10.038-5.688,14.249
		c2.184,4.211,9.476,6.201,13.59,4.448C253.564,195.523,257.316,190.687,255.135,186.478z M247.793,190.99
		c-2.697,1.151-7.484-0.158-8.918-2.918c-1.432-2.763,1.034-8.199,3.733-9.349c2.699-1.153,7.484,2.418,8.92,5.181
		C252.958,186.667,250.49,189.84,247.793,190.99z" style="fill:#BF4A4A;"></path>
</g>
<path d="M228.406,161.122l-1.979-0.286c0.024-0.167,0.627-4.136,4.069-6.266
	c2.571-1.591,5.961-1.705,10.075-0.339l-0.631,1.898c-3.515-1.168-6.332-1.124-8.374,0.131
	C228.918,157.886,228.411,161.09,228.406,161.122z" style="fill:#E4BC96;"></path>
<path d="M284.146,120.932c0,0,21.636,6.845,21.4,30.076c0,0,8.514-0.456,5.617-16.667
	C311.163,134.342,309.827,117.161,284.146,120.932z" style="fill:#5A3D1C;"></path>
<path d="M261.311,237.767c-29.842,5.01-58,4.406-73.713-3.106
	c-23.012-11.006-26.428-34.673-27.759-59.474c-0.464-8.649-0.147-17.07,1.853-25.002c-7.887,11.97-9.257,25.817-8.479,40.301
	c1.333,24.801,4.749,48.47,27.759,59.474c15.715,7.513,43.875,8.118,73.713,3.106c44.844-7.528,71.227-29.204,77.263-53.913
	C320.424,217.165,296.584,231.842,261.311,237.767z" style="opacity:0.5;fill:#E8BCAB;"></path>
<path d="M229.367,114.071c0,0-72.221,20.325-66.99,66.032C162.375,180.103,122.673,136.547,229.367,114.071z" style="fill:#5A3D1C;"></path>
<path d="M197.233,228.25c0.976,5.47-3.122,10.624-9.151,11.506
	c-6.032,0.887-11.713-2.827-12.689-8.301c-0.978-5.47,3.122-10.624,9.153-11.506C190.576,219.065,196.257,222.78,197.233,228.25z" style="opacity:0.24;fill:#BF4A4A;"></path>
<path d="M248.116,210.675c-18.907,4.934-36.472,1.863-34.149,9.181c0.255,0.805,0.735,1.634,1.388,2.468
	c1.858,0.082,3.735,0.129,5.634,0.129c28.554,0,52.643-9.356,60.301-22.169C277.209,197.016,264.998,206.272,248.116,210.675z" style="fill:#FFFFFF;"></path>
</svg>
