<svg xml:space="preserve" style="enable-background:new 0 0 222.436 253.438;" viewBox="0 0 222.436 253.438" height="253.438px" width="222.436px" y="0px" x="0px" xmlns:xlink="http://www.w3.org/1999/xlink" xmlns="http://www.w3.org/2000/svg" id="Layer_1" version="1.1">
<g id="Layer_4">
	<path d="M70.639,190.778c0,31.076,11.144,56.268,24.891,56.268s32.182-25.19,32.182-56.268
		c0-31.078-18.435-56.271-32.182-56.271C81.782,134.508,70.639,159.7,70.639,190.778z" style="fill:#94BCD3;"></path>
	<path d="M94.746,188.679c-3.795,30.851-19.654,54.335-35.42,52.449
		c-15.767-1.884-33.829-29.421-30.033-60.27c3.797-30.853,28.014-53.336,43.78-51.452S98.542,157.828,94.746,188.679z" style="fill:#94BCD3;"></path>
</g>
<g id="Layer_6">
	<path d="M65.156,189.087c-22.632-5.266-32.396-19.622-26.892-30.369c4.822-9.416,13.047-18.278,35.68-13.014
		c14.375,3.345,26.218,10.206,32.331,17.835c-6.059-14.409-21.092-27.651-40.238-32.106c-27.603-6.423-61.521,5.312-65.755,35.005
		c-2.902,20.347,17.076,50.441,44.679,56.862c27.602,6.425,59.602-20.528,63.675-40.645c0.117-0.575,0.209-1.154,0.288-1.736
		C103.23,190.052,85.097,193.727,65.156,189.087z" style="fill:#94BCD3;"></path>
	<path d="M13.78,167.937c4.235-29.693,38.154-34.928,65.756-28.505c3.602,0.838,7.057,1.985,10.335,3.396
		c-6.694-5.218-14.796-9.294-23.834-11.396c-27.603-6.423-61.521,5.311-65.756,35.004c-2.61,18.309,13.31,44.502,36.635,54.246
		C21.268,208.375,11.712,182.435,13.78,167.937z" style="fill:#9FCAE3;"></path>
</g>
<g id="Layer_2">
	<path d="M42.178,212.267c0,0,6.774,24.25,20.87,28.485c14.096,4.24,14.991-6.545,14.991-6.545
		c0.518,10.169,33.445,24.563,36.583-18.938C114.622,215.27,71.957,220.037,42.178,212.267z" style="fill:#A6D3ED;"></path>
	<path d="M67.57,216.128c0,0,10.47,3.162,10.47,18.08c0,0-1.292-15.371,7.014-17.491L67.57,216.128z" style="fill:#94BCD3;"></path>
	<path d="M101.018,216.298c0,0,13.81-2.092,11.482,11.614c-2.328,13.707,10.682-11.413,6.643-14.34
		C115.105,210.647,101.018,216.298,101.018,216.298z" style="fill:#94BCD3;"></path>
	<path d="M46.862,239.44c0,0-13.213-6.658-1.869-10.148c11.344-3.491,42.898-2.672,32.503,12.917L46.862,239.44z"></path>
	<path d="M52.505,228.409c-0.572,0-1.138,0.011-1.698,0.026c-2.223,0.292-4.219,0.696-5.814,1.188
		c-11.345,3.49,1.869,10.149,1.869,10.149l15.298,1.382c6.156-1.158,10.326-3.388,10.326-5.949
		C72.486,231.452,63.541,228.409,52.505,228.409z" style="fill:#3F3F3F;"></path>
	<path d="M77.888,245.968c0,7.51-8.522,7.47-19.039,7.47c-10.514,0-19.038,0.04-19.038-7.47c0-7.508,8.524-13.595,19.038-13.595
		C69.365,232.373,77.888,238.46,77.888,245.968z"></path>
	<path d="M69.27,237.06c0.788,4.009,2.171,9.832-12.045,9.832c-7.576,0-14.111-0.682-14.898-4.689
		c-0.789-4.013,4.604-8.415,12.045-9.835C61.812,230.948,68.481,233.047,69.27,237.06z" style="fill:#3F3F3F;"></path>
	<path d="M55.663,237.272c0.42,1.654-1.21,3.48-3.641,4.082
		c-2.431,0.598-4.742-0.261-5.161-1.914c-0.421-1.655,1.209-3.482,3.641-4.081C52.933,234.76,55.242,235.618,55.663,237.272z" style="opacity:0.33;fill:#8C8C8C;enable-background:new    ;"></path>
	<path d="M85.086,239.203c0,0-13.214-6.659-1.87-10.148c11.344-3.49,42.899-2.673,32.503,12.917L85.086,239.203z"></path>
	<path d="M90.73,228.172c-0.572,0-1.138,0.011-1.698,0.026c-2.223,0.291-4.22,0.697-5.815,1.188
		c-11.344,3.491,1.87,10.149,1.87,10.149l15.297,1.383c6.157-1.158,10.327-3.389,10.327-5.95
		C110.71,231.214,101.765,228.172,90.73,228.172z" style="fill:#3F3F3F;"></path>
	<path d="M116.112,245.73c0,7.509-8.523,7.469-19.037,7.469c-10.515,0-19.039,0.04-19.039-7.469c0-7.508,8.523-13.596,19.039-13.596
		C107.589,232.135,116.112,238.223,116.112,245.73z"></path>
	<path d="M107.495,236.822c0.787,4.009,2.17,9.831-12.044,9.831c-7.576,0-14.112-0.681-14.899-4.689
		c-0.79-4.012,4.603-8.415,12.044-9.835C100.036,230.71,106.706,232.81,107.495,236.822z" style="fill:#3F3F3F;"></path>
	<path d="M95.632,237.034c0.419,1.656-1.21,3.482-3.641,4.082
		c-2.431,0.599-4.741-0.259-5.161-1.913c-0.421-1.655,1.21-3.481,3.64-4.082C92.901,234.523,95.211,235.38,95.632,237.034z" style="opacity:0.33;fill:#8C8C8C;enable-background:new    ;"></path>
	<path d="M22.211,187.197c0,0,7.096,14.982,21.782,22.043c23.433,11.265,93.958,14.316,102.206-21.445
		c0,0-6.862-17.378-17.589-26.408C117.886,152.353,0.578,125.173,22.211,187.197z" style="fill:#7696A8;"></path>
	<path d="M42.789,138.739c0,0-66.509,90.886-7.843,105.031c51.753,12.479,139.333,7.333,109.605-52.711
		C123.539,148.618,107.789,88.861,42.789,138.739z" style="fill:#94BCD3;"></path>
	<path d="M47.193,124.494c0,0-6.239,24.412-18.787,48.474c-17.15,32.895-11.792,43.642,16.47,53.709
		c42.703,15.214,80.613-9.92,50.677-54.544C67.406,130.177,98.881,70.752,47.193,124.494z" style="fill:#9FCAE3;"></path>
	<path d="M47.91,136.416c0,0-0.825,19.86-8.83,36.552c-10.943,22.817-10.587,27.396,7.622,34.473
		c27.514,10.691,66.574-13.118,40.982-37.509C63.21,146.604,81.013,99.2,47.91,136.416z" style="fill:#A6D3ED;"></path>
	<path d="M31.034,152.687c0,0,17.702,49.152,50.028,43.529c41.679-7.25,40.331-46.99,40.331-46.99
		S26.284,131.687,31.034,152.687z" style="fill:#7696A8;"></path>
	<path d="M144.552,191.06c-7.242-14.629-13.86-31.313-22.085-44.858c-2.591,2.064-4.136,5.851-4.136,11.689
		c0,0-17.636,14.057-0.052,43.546c19.794,33.192-50.696,57.568-95.12,37.947c3.254,1.841,7.145,3.33,11.786,4.387
		C86.856,255.571,174.28,251.104,144.552,191.06z" style="fill:#7696A8;"></path>
</g>
<g id="Layer_5">
</g>
<g id="Layer_3">
	<path d="M109.915,172.071c0,0,13.165,35.944,31.443,48.925c0,0,17.789-20.969,9.941-33.505
		C143.451,174.955,109.915,172.071,109.915,172.071z" style="fill:#7696A8;"></path>
	<path d="M106.053,159.545c0,0,4.896,27.226,31.229,44.226l-2.629-8.089L106.053,159.545z" style="fill:#5D7685;"></path>
	<path d="M116.989,130.846c0,0,4.932,30.272,55.12,19.783l-0.076,77.362c0,0-60.924-24.161-60.924-66.924
		L116.989,130.846z" style="fill:#94BCD3;"></path>
	<path d="M116.989,130.846l-2.984,15.341c6.597,14.702,22.852,38.969,58.071,38.262l0.033-33.818
		C121.92,161.119,116.989,130.846,116.989,130.846z" style="fill:#9FCAE3;"></path>
	<path d="M147.781,197.354c0,0-2.705-38.844,26.146-46.921C173.929,150.434,163.402,240.313,147.781,197.354z" style="fill:#94BCD3;"></path>
	<path d="M167.277,175.512c0,0,5.769,3.492,6.575,0.494C173.853,176.007,173.73,181.15,167.277,175.512z" style="fill:#CFC8BB;"></path>
	<ellipse ry="38.953" rx="14.438" cy="189.385" cx="173.929" style="fill:#9FCAE3;"></ellipse>
	<ellipse ry="32.984" rx="9.719" cy="188.356" cx="174.624" style="fill:#7696A8;"></ellipse>
	<g>
		<path d="M168.91,198.46c0-16.709,2.924-30.254,6.533-30.254c3.607,0,6.533,13.545,6.533,30.254
			c0,5.092-0.271,9.887-0.753,14.097c1.917-6.025,3.118-14.636,3.118-24.199c0-18.217-4.354-32.984-9.72-32.984
			c-5.367,0-9.719,14.769-9.719,32.984c0,13.211,2.289,24.603,5.595,29.868C169.51,212.923,168.91,206.018,168.91,198.46z" style="fill:#5D7685;"></path>
	</g>
</g>
<g id="Layer_10">
	<path d="M141.896,143.97c-8.235,18.898-27.258,34.217-60.883,34.217S28.421,161.216,20.13,143.97
		c-8.026-16.694,27.258-34.216,60.883-34.216S149.318,126.938,141.896,143.97z" style="fill:#7696A8;"></path>
	<path d="M140.896,140.7c-8.235,17.131-27.258,31.017-60.883,31.017S27.421,156.333,19.13,140.7
		c-8.026-15.134,27.258-31.017,60.883-31.017C113.638,109.684,148.318,125.26,140.896,140.7z" style="fill:#94BCD3;"></path>
	<path d="M131.803,137.063c0,15.119-23.785,27.375-53.124,27.375s-44.91-12.76-53.123-27.375
		c-7.407-13.182,23.784-27.375,53.123-27.375S131.803,121.944,131.803,137.063z" style="fill:#9FCAE3;"></path>
</g>
<g id="Layer_9">
	<g>
		<polygon points="174.78,134.937 178.53,253.437 184.78,253.437 189.78,134.937" style="fill:#D5B28F;"></polygon>
	</g>
	<circle r="9.19" cy="174.796" cx="182.09" style="opacity:0.59;fill:#FFFFFF;enable-background:new    ;"></circle>
	<g>
		<polygon points="141.031,129.648 177.781,150.648 181.477,152.76 185.186,150.67 222.436,129.67 
			215.068,116.604 177.818,137.604 185.223,137.625 148.473,116.625" style="fill:#AD9174;"></polygon>
	</g>
	<polygon points="141.031,129.648 154.28,129.648 148.473,116.625" style="fill:#FFD5AB;"></polygon>
	<polygon points="222.436,129.67 208.78,129.67 215.068,116.604" style="fill:#FFD5AB;"></polygon>
	<polygon points="148.473,116.625 181.526,135.513 215.068,116.604 208.78,129.67 181.53,143.937 
		154.28,129.648" style="fill:#C9A988;"></polygon>
	<circle r="33.206" cy="102.23" cx="181.746" style="fill:#8210D2;"></circle>
	<polygon points="181.477,152.76 181.477,253.437 186.78,253.437 189.78,148.08" style="fill:#AD9174;"></polygon>
	<polygon points="141.031,129.648 159.28,143.937 171.366,146.982" style="fill:#AD9174;"></polygon>
	<polygon points="222.436,129.67 208.1,144.006 181.477,152.76" style="fill:#AD9174;"></polygon>
	<polygon points="208.78,129.67 201.147,137.304 181.53,143.937" style="fill:#C9A988;"></polygon>
	<polygon points="154.28,129.648 162.175,137.542 181.53,143.937" style="fill:#C9A988;"></polygon>
	<polygon points="176.569,191.46 188.546,191.414 188.41,196.197 176.719,196.197" style="fill:#AD9174;"></polygon>
	<polygon points="181.477,196.197 179.405,206.937 182.655,213.062" style="fill:#AD9174;"></polygon>
	<polygon points="181.477,217.437 179.947,220.604 179.947,222.77 181.477,226.27" style="fill:#AD9174;"></polygon>
	<path d="M204.791,97.372c-0.512,10.065-7.512,19.065-16.512,23.065s-19,2-27-4c-9-8-10-22-4.577-32.063
		c1.108-2.188,2.516-4.188,4.202-5.938c3.375-3.5,7.875-6,13.375-7c2.333-0.333,4.64-0.361,6.874-0.118
		c2.234,0.244,4.398,0.758,6.448,1.51c7.678,2.607,14.678,8.607,16.377,17.849C204.548,92.83,204.831,95.076,204.791,97.372z" style="fill:#BC63D2;"></path>
	<path d="M186.151,90.458c-0.871,6.979-7.871,10.979-13.871,8.979
		c-5-2-5-9-3-14c3-5,10-7,14.381-1.521C185.265,85.617,186.219,87.934,186.151,90.458z" style="opacity:0.5;fill:#FFFFFF;enable-background:new    ;"></path>
</g>
<g id="Layer_8">
	<g>
		<g>
			<path d="M175.527,174.978h13.927l0,0c2.697,0,4.887-2.368,4.887-5.288c0-2.921-2.188-5.289-4.887-5.289
				l0,0h-13.927l0,0c-2.697,0-4.886,2.368-4.886,5.289C170.642,172.609,172.829,174.978,175.527,174.978L175.527,174.978z" style="fill:#E6AB9B;"></path>
		</g>
		<path d="M186.243,164.4h-10.717c-2.697,0-4.886,2.368-4.886,5.289c0,2.92,2.188,5.288,4.886,5.288
			l10.717-1.871V164.4z" style="fill:#FFBCAC;"></path>
	</g>
	<g>
		<g>
			<path d="M174.438,186.46h15.475l0,0c2.998,0,5.429-2.63,5.429-5.877c0-3.244-2.431-5.874-5.429-5.874l0,0
				h-15.475l0,0c-2.998,0-5.429,2.63-5.429,5.874C169.009,183.83,171.439,186.46,174.438,186.46L174.438,186.46z" style="fill:#E6AB9B;"></path>
		</g>
		<path d="M186.344,174.709h-11.906c-2.998,0-5.429,2.63-5.429,5.874c0,3.247,2.431,5.877,5.429,5.877
			l11.906-2.079V174.709z" style="fill:#FFBCAC;"></path>
	</g>
	<g>
		<g>
			<path d="M176.979,195.027h11.697l0,0c2.269,0,4.105-1.989,4.105-4.441c0-2.454-1.838-4.442-4.105-4.442
				l0,0h-11.697l0,0c-2.269,0-4.104,1.988-4.104,4.442C172.873,193.038,174.71,195.027,176.979,195.027L176.979,195.027z" style="fill:#E6AB9B;"></path>
		</g>
		<path d="M185.979,186.143h-9.001c-2.269,0-4.104,1.988-4.104,4.442c0,2.452,1.837,4.441,4.104,4.441
			l9.001-1.572V186.143z" style="fill:#FFBCAC;"></path>
	</g>
</g>
<g id="Layer_1_1_">
	<path d="M34.583,135.656c0,0,14.715,37.961,44.918,33.856c42.74-5.808,46.338-35.407,46.338-35.407
		L34.583,135.656z" style="fill:#7696A8;"></path>
	<path d="M133.93,111.654c-2.841,24.531-25.448,49.834-55.853,50.577
		c-34.063,0.833-52.877-33.098-50.037-57.629c2.841-24.533,19.831-47.337,55.588-45.104
		C111.449,61.235,136.771,87.122,133.93,111.654z" style="fill:#E6DFD0;"></path>
	<path d="M110.71,98.381c-2.928-15.034-20.08-36.175-36.707-33.138c-16.628,3.038-29.063,26.891-28.39,42.193
		c0.816,18.513,19.706,31.372,36.333,28.334C98.575,132.733,113.639,113.416,110.71,98.381z" style="fill:#EDAFA0;"></path>
	<path d="M72.046,92.082c-0.092,3.337-3.018,5.995-6.534,5.938c-3.518-0.062-6.296-2.814-6.205-6.152
		c0.091-3.337,3.017-5.995,6.534-5.937C69.358,85.99,72.136,88.744,72.046,92.082z" style="fill:#008C05;"></path>
	<path d="M69.251,90.801c-0.064,2.351-2.125,4.223-4.601,4.181C62.175,94.94,60.22,93,60.283,90.65
		c0.062-2.353,2.124-4.223,4.6-4.182C67.359,86.512,69.314,88.451,69.251,90.801z" style="fill:#009C06;"></path>
	<path d="M67.201,96.847c-0.04,1.486-1.344,2.672-2.911,2.646c-1.567-0.027-2.806-1.254-2.766-2.741
		c0.041-1.487,1.346-2.672,2.912-2.646C66.004,94.133,67.241,95.36,67.201,96.847z" style="fill:#FFFFFF;"></path>
	<path d="M69.811,92.784c-0.018,0.629-0.567,1.129-1.229,1.118c-0.664-0.01-1.187-0.529-1.169-1.158
		c0.017-0.628,0.566-1.129,1.229-1.118C69.304,91.637,69.827,92.156,69.811,92.784z" style="fill:#FFFFFF;"></path>
	<g>
		<path d="M103.821,93.017c-0.262,9.663-4.8,9.982-10.382,9.888c-5.585-0.093-10.102-0.565-9.836-10.229
			c0.261-9.665,2.985-17.456,10.587-17.328C101.137,75.465,104.084,83.352,103.821,93.017z" style="fill:#FFFFFF;"></path>
		<path d="M94.539,103.416c-0.364,0-0.734-0.004-1.108-0.011c-3.313-0.055-6.212-0.264-8.127-2.265
			c-1.592-1.664-2.312-4.437-2.201-8.478c0.314-11.655,4.085-17.816,10.903-17.816l0.192,0.001c2.341,0.04,4.343,0.912,5.951,2.592
			c2.882,3.012,4.363,8.549,4.171,15.591C104.061,102.621,99.545,103.416,94.539,103.416z M94.006,75.846
			c-7.81,0-9.696,9.159-9.903,16.843c-0.104,3.761,0.525,6.299,1.923,7.759c1.649,1.723,4.336,1.905,7.421,1.957
			c5.343,0.091,9.62-0.036,9.874-9.401c0.185-6.773-1.198-12.055-3.894-14.873c-1.417-1.48-3.181-2.249-5.245-2.284L94.006,75.846z" style="fill:#C45A5E;"></path>
	</g>
	<path d="M98.731,89.764c-0.063,2.35-2.124,4.222-4.601,4.18c-2.476-0.042-4.432-1.981-4.367-4.33
		c0.063-2.352,2.122-4.223,4.6-4.182C96.838,85.475,98.793,87.414,98.731,89.764z" style="fill:#009C06;"></path>
	<path d="M104.661,95.99c-2.37-12.176-16.263-29.297-29.728-26.837c-13.466,2.46-23.538,21.778-22.991,34.17
		c0.661,14.993,15.959,25.408,29.426,22.947C94.833,123.81,107.033,108.165,104.661,95.99z" style="fill:#FFBCAC;"></path>
	<path d="M99.775,90.895c-0.021,0.718-0.648,1.288-1.404,1.273c-0.755-0.012-1.35-0.603-1.33-1.319
		c0.017-0.717,0.645-1.287,1.4-1.274C99.197,89.587,99.793,90.177,99.775,90.895z" style="fill:#FFFFFF;"></path>
	<path d="M83.18,59.754c20.213,4.138,37.279,23.259,35.17,41.47c-2.302,19.86-20.603,40.345-45.217,40.944
		c-27.578,0.675-42.809-26.793-40.509-46.653c0.504-4.356,1.561-8.646,3.207-12.668c-2.709,5.405-4.38,11.356-5.083,17.431
		c-2.564,22.149,14.421,52.784,45.177,52.032c27.451-0.668,47.864-23.516,50.43-45.664C128.842,85.156,107.398,62.521,83.18,59.754z" style="fill:#F5EFE4;"></path>
	<g>
		<path d="M90.767,120.442c0,0-0.514,13.804-16.543,12.953c-12.544-0.666-10.131-14.788-10.131-14.788
			L90.767,120.442z" style="fill:#B01B1F;"></path>
		
			<linearGradient gradientTransform="matrix(0.9827 -0.1853 -0.1853 -0.9827 7.9096 98.0258)" y2="-61.4369" x2="57.2589" y1="-35.7434" x1="64.2395" gradientUnits="userSpaceOnUse" id="SVGID_1_">
			<stop style="stop-color:#FF8C90" offset="0"></stop>
			<stop style="stop-color:#A31C20" offset="1"></stop>
		</linearGradient>
		<path d="M91.99,119.637c0,0-4.535,13.312-18.243,11.521c-10.267-1.341-10.026-13.228-10.026-13.228
			L91.99,119.637z" style="fill:url(#SVGID_1_);"></path>
		<path d="M65.784,118.056c0,0,1.057,6.645,9.89,7.415c8.834,0.769,13.604-5.997,13.604-5.997L65.784,118.056
			z" style="fill:#B01B1F;"></path>
		<path d="M75.995,129.063c-0.944,0-1.878-0.104-2.8-0.315
			c-0.269-0.062-0.438-0.329-0.376-0.599s0.331-0.439,0.599-0.376c3.462,0.788,7.136-0.041,10.925-2.475
			c0.232-0.15,0.541-0.082,0.691,0.151c0.149,0.232,0.082,0.542-0.151,0.691C81.854,128.086,78.876,129.063,75.995,129.063z" style="opacity:0.59;fill:#FFFFFF;enable-background:new    ;"></path>
		<path d="M69.273,123.266c0,0,1.656-6.454,7.942-2.301c0,0,7.202-2.83,6.928,2.792
			C84.143,123.758,76.296,127.907,69.273,123.266z" style="fill:#911619;"></path>
	</g>
	<path d="M86.114,59.719c22.387,4.582,41.287,25.761,38.951,45.931
		c-2.547,21.996-21.253,54.468-48.515,55.135c-30.543,0.746-46.43-35.355-46.43-61.458c0-4.858,1.729-9.576,3.552-14.032
		c-3.002,5.988-4.854,12.58-5.632,19.308c-2.84,24.532,16.007,73.396,50.069,72.562c30.405-0.741,52.979-40.979,55.82-65.51
		C136.686,87.854,112.936,62.783,86.114,59.719z" style="fill:#D4CEBF;"></path>
	<path d="M30.12,99.326c0.559-4.826,1.729-9.576,3.552-14.032c-2.131,4.251-3.671,8.811-4.67,13.502
		c-0.227,5.172,0.553,10.696,2.265,16.108C29.958,109.585,29.55,104.245,30.12,99.326z M123.476,91.683
		c-2.229-9.596-8.622-18.702-17.229-25.37c-6.213-3.439-13.062-5.787-20.131-6.595C103.312,63.24,118.439,76.556,123.476,91.683z
		 M132.169,96.07c0.989,4.073,1.322,8.228,0.846,12.346c-2.842,24.529-24.5,68.007-54.905,68.748
		c-24.964,0.612-42.592-34.129-52.508-53.478c1.166,21.726,21.332,67.189,50.997,67.189c42.835,0,54.49-54.691,57.331-79.223
		C134.534,106.439,133.864,101.163,132.169,96.07z" style="fill:#BDB8AA;"></path>
	<path d="M61.108,123.093c-0.112,0-0.225-0.038-0.318-0.115
		c-1.249-1.035-1.812-2.062-1.836-2.105c-0.131-0.243-0.041-0.545,0.201-0.676c0.243-0.132,0.545-0.043,0.678,0.2
		c0.005,0.009,0.504,0.909,1.594,1.812c0.213,0.176,0.242,0.492,0.066,0.704C61.395,123.031,61.252,123.093,61.108,123.093z" style="opacity:0.34;fill:#FFFFFF;enable-background:new    ;"></path>
	<path d="M33.852,122.01c0,0,1.16,12.604,8.229,16.63C49.149,142.666,27.312,141.486,33.852,122.01z" style="fill:#D4CEBF;"></path>
	<path d="M115.47,137.371c0,0,12.07-4.929,10.252-29.925l-3.106,8.991V104.77c0,0-0.181,23.248-21.638,23.248
		L115.47,137.371z" style="fill:#BDB8AA;"></path>
	<g>
		<path d="M81.03,125.687c0,0,5.833,20.983,26.417,18.742c20.585-2.242,20.05-24.725,18.275-36.983
			C125.722,107.446,121.332,162.046,81.03,125.687z" style="fill:#BDB8AA;"></path>
		<path d="M87.188,108.358c0,0,2.759,29.65,36.759,18.198c0,0-5.514,18.588-25.667,14.548
			c-20.152-4.04-18.666-26.334-18.666-26.334L87.188,108.358z" style="fill:#F5EFE4;"></path>
		<path d="M88.312,129.933c-6.254-7.185-6.073-17.369-6.077-17.383l-2.621,2.22
			c0,0-1.486,22.293,18.666,26.333c20.153,4.04,25.667-14.548,25.667-14.548C108.629,141.873,95.004,137.62,88.312,129.933z" style="fill:#D4CEBF;"></path>
		<path d="M87.188,108.358c0,0,5.746,20.37,20.026,17.272c14.28-3.097,15.399-20.86,15.399-20.86
			s4.029,25.264-15.182,26.848S87.188,108.358,87.188,108.358z" style="fill:#FFF9ED;"></path>
	</g>
	<g>
		<path d="M69.501,125.687c0,0-5.833,20.983-26.417,18.742c-20.584-2.242-18.152-22.827-16.378-35.087
			C26.707,109.343,29.2,162.046,69.501,125.687z" style="fill:#BDB8AA;"></path>
		<path d="M63.344,108.358c0,0-2.759,29.65-36.759,18.198c0,0,5.514,18.588,25.667,14.548
			c20.152-4.04,18.667-26.333,18.667-26.333L63.344,108.358z" style="fill:#F5EFE4;"></path>
		<path d="M59.327,132.79c8.283-6.923,8.965-20.224,8.969-20.239l2.621,2.22c0,0,1.486,22.293-18.666,26.333
			c-20.153,4.04-25.667-14.548-25.667-14.548C39.857,139.828,52.607,138.407,59.327,132.79z" style="fill:#D4CEBF;"></path>
		<path d="M63.344,108.358c0,0-5.746,20.37-20.026,17.272c-14.279-3.097-15.399-20.86-15.399-20.86
			s-4.029,25.264,15.182,26.848S63.344,108.358,63.344,108.358z" style="fill:#FFF9ED;"></path>
	</g>
	<polygon points="70.917,114.77 79.614,114.77 87.188,108.358 63.344,108.358" style="fill:#F5EFE4;"></polygon>
	<path d="M70.665,119.937c0,0,0.234-2.239,4.602-2.239s4.604,2.239,4.604,2.239l-0.255-5.167h-8.696
		L70.665,119.937z" style="fill:#D4CEBF;"></path>
	<path d="M68.296,112.551c0,0,0.636-2.556,7.16-2.556c6.523,0,6.796,2.541,6.796,2.541
		s-2.124,4.951-7.091,4.067C70.194,115.719,68.296,112.551,68.296,112.551z" style="fill:#D4CEBF;"></path>
	<g>
		<path d="M87.917,106.917c0.199,4.911-7.858,9.256-13.612,9.511c-5.754,0.256-10.58-3.521-10.779-8.431
			c-0.199-4.911,4.303-9.098,10.056-9.353S87.718,102.005,87.917,106.917z" style="fill:#FFBCAC;"></path>
		<path d="M84.902,107.596c-6.527,0.288-15.503-2.405-15.658-6.213
			c-0.026-0.646,0.112-1.277,0.374-1.885c-3.717,1.504-6.241,4.794-6.092,8.498c0.199,4.91,5.025,8.687,10.779,8.431
			c5.63-0.25,13.607-4.427,13.606-9.2C86.953,107.417,85.947,107.55,84.902,107.596z" style="opacity:0.5;fill:#E09A89;enable-background:new    ;"></path>
		<path d="M76.936,111.711c-6.527,0.289-11.945-2.562-12.102-6.37c-0.093-2.288,1.743-4.394,4.631-5.777
			c-3.633,1.531-6.088,4.781-5.939,8.434c0.199,4.91,5.025,8.687,10.779,8.431c4.537-0.201,11.597-3.17,12.882-6.691
			C85.263,110.667,79.561,111.594,76.936,111.711z" style="fill:#E09A89;"></path>
		<path d="M79.053,102.437c-0.168,1.083-1.688,1.775-3.398,1.55c-1.709-0.228-2.958-1.287-2.789-2.369
			c0.169-1.083,1.689-1.776,3.398-1.549C77.973,100.294,79.221,101.354,79.053,102.437z" style="fill:#FFFFFF;"></path>
	</g>
	<path d="M91.393,132.745c0,0,6.028,4.913,16.327,0.395c0,0-7.241,7.219-13.524,6.453" style="fill:#D4CEBF;"></path>
	<path d="M45.28,133.27c0,0,6.016,5.106,15.833-1.5C61.114,131.77,51.114,145.603,45.28,133.27z" style="fill:#D4CEBF;"></path>
	<path d="M82.3,114.154c0,0,3.134,23.442,25.419,18.984C107.719,133.139,85.819,143.872,82.3,114.154z" style="fill:#FFFFFF;"></path>
	<path d="M45.28,133.27c0,0,16.551,5.566,21.231-19.396l1.496,1.055
		C68.008,114.929,65.69,142.833,45.28,133.27z" style="fill:#FFFFFF;"></path>
	<path d="M111.605,157.493c0,0-5.991,12.276-24.991,11.943c0,0,14.206,17.104,26.45-11.943" style="fill:#BDB8AA;"></path>
	<path d="M83.628,59.497c-29.386-1.835-46.087,13.243-52.688,32.29
		c18.118,13.248,43.667,21.501,71.978,21.501c10.884,0,21.356-1.224,31.159-3.479C135.489,85.841,110.752,61.192,83.628,59.497z" style="opacity:0.09;enable-background:new    ;"></path>
	<g>
		<path d="M71.529,101.698c0,0-15.21-0.867-29.288,6.502l-1.76-5.021l-2.712-7.741L71.529,101.698z" style="fill:#BDB8AA;"></path>
		<path d="M37.769,95.439l0.648,6.465c5.488-3.694,13.777-3.815,13.777-3.815
			c-5.976,1.04-10.41,5.738-10.412,5.74l0.932,1.948c0,0,13.278-6.267,28.813-4.078l2.964-9.95
			C74.492,91.748,55.51,86.34,37.769,95.439z" style="fill:#FFF9ED;"></path>
		<path d="M62.617,96.899c9.213-1.086-9.087-7.379-24.849-1.46c17.742-9.1,36.725-3.691,36.725-3.691
			l-2.964,9.95c-15.535-2.188-28.813,4.078-28.813,4.078S53.404,97.985,62.617,96.899z" style="fill:#F5EFE4;"></path>
		<path d="M38.417,101.904l1.043,1.043c0,0,6.125-4.024,12.184-4.642
			C51.644,98.305,45.219,97.713,38.417,101.904z" style="fill:#BDB8AA;"></path>
	</g>
	<g>
		<path d="M81.038,103.411c0,0,15.177,1.321,28.055,10.63l2.46-4.717l3.793-7.272L81.038,103.411z" style="fill:#BDB8AA;"></path>
		<path d="M115.347,102.052l-1.567,6.307c-4.903-4.442-13.09-5.75-13.09-5.75
			c5.767,1.885,9.482,7.17,9.483,7.172l-1.201,1.794c0,0-12.244-8.104-27.933-8.163l-1.51-10.271
			C79.53,93.139,99.091,90.506,115.347,102.052z" style="fill:#FFF9ED;"></path>
		<path d="M90.545,99.938c-8.962-2.396,10.05-6.001,24.801,2.113C99.091,90.506,79.53,93.139,79.53,93.139
			l1.509,10.271c15.688,0.061,27.933,8.163,27.933,8.163S99.508,102.333,90.545,99.938z" style="fill:#F5EFE4;"></path>
		<path d="M113.779,108.358l-1.182,0.883c0,0-5.486-4.86-11.394-6.339
			C101.204,102.902,107.647,103.236,113.779,108.358z" style="fill:#BDB8AA;"></path>
	</g>
</g>
<g id="Layer_7">
	<path d="M157.015,82.76c-2.919,17.861-38.729,26.642-79.987,19.613c-41.26-7.026-72.34-27.202-69.424-45.062
		c2.917-17.859,35.461-6.64,76.721,0.39C125.583,64.729,159.933,64.902,157.015,82.76z" style="fill:#1B1440;"></path>
	<path d="M157.253,81.305c-2.595,15.881-38.145,23.058-79.402,16.029
		C36.592,90.308,5.249,71.737,7.842,55.856c2.595-15.882,35.238-5.271,76.497,1.756C125.598,64.64,159.846,65.425,157.253,81.305z" style="fill:#3F3773;"></path>
	<path d="M145.594,77.607c-0.806,4.94-14.479,8.111-24.081,10.053c-11.759,2.376-30.227-8.204-48.787-7.472
		c-62.349,2.462-59.41-15.8-57.614-26.792s28.242-2.992,61.554,2.682C109.976,61.752,147.39,66.615,145.594,77.607z" style="fill:#514794;"></path>
	<path d="M110.587,76.16c-29.549,2.888-72.275-7.847-61.074-18.187l30.063-48.47l26.181,5.505l10.82,55.638
		C116.577,70.646,119.305,75.307,110.587,76.16z" style="fill:#514794;"></path>
	<path d="M79.576,9.504c0,0,56.666-14.247,49.188-7.854c-7.479,6.393-21.828,19.421-21.828,19.421
		S79.649,13.927,79.576,9.504z" style="fill:#514794;"></path>
	<path d="M102.661,44.575C98.271,71.449,48.137,65.4,53.37,51.756l0,0l-3.856,6.218
		c-11.202,10.34,31.525,21.074,61.074,18.187c8.718-0.853,5.99-5.513,5.99-5.513l-9.791-50.349
		c-7.953-4.679-15.712-7.835-20.95-9.479l-6.261-1.316C79.576,9.504,107.051,17.7,102.661,44.575z" style="fill:#473E82;"></path>
	<path d="M93.956,13.843c0,0,41.306-18.073,30.387-8.352c-10.916,9.722-17.406,15.58-17.406,15.58
		L93.956,13.843z" style="fill:#473E82;"></path>
	<path d="M52.03,50.912c0,0-28.359-4.731-22.398,3.4c13.815,18.844,117.231,34.147,94.826,13.75
		C102.052,47.666,52.944,51.08,52.944,51.08" style="fill:#62599E;"></path>
	<path d="M79.576,9.504c0,0,12.812-0.542,30.116,8.829l-2.755,2.738
		C106.937,21.071,96.563,12.397,79.576,9.504z" style="fill:#4E458F;"></path>
	<path d="M112.959,52.041L112.959,52.041c-31.51,5.212-54.057-9.207-54.057-9.207l0,0l-9.39,15.14
		c-11.202,10.34,31.525,21.074,61.074,18.187c8.718-0.853,5.99-5.513,5.99-5.513L112.959,52.041z"></path>
	<path d="M68.127,47.265l-5.682,24.054c10.475,3.241,25,5.36,38.425,5.29l1.315-23.515
		C87.661,53.615,75.751,50.276,68.127,47.265z" style="fill:#262626;"></path>
	<path d="M95.325,49.43l-17.008-2.897c-3.339-0.57-6.507,1.632-7.041,4.894l-2.661,16.305
		c-0.533,3.261,1.764,6.394,5.104,6.963l17.005,2.896c3.342,0.568,6.51-1.634,7.043-4.895l2.662-16.305
		C100.963,53.131,98.667,49.998,95.325,49.43z M93.353,68.818c-0.354,2.162-2.455,3.624-4.668,3.246l-11.277-1.922
		c-2.217-0.376-3.739-2.455-3.387-4.618l1.767-10.812c0.353-2.164,2.455-3.624,4.67-3.246l11.277,1.922
		c2.215,0.377,3.739,2.455,3.386,4.616L93.353,68.818z" style="fill:#D1D1D1;"></path>
	<path d="M95.325,49.43l-17.008-2.897
		c-3.339-0.57-6.507,1.632-7.041,4.894l-2.661,16.305c-0.533,3.261,1.764,6.394,5.104,6.963l17.005,2.896
		c1.256,0.214,2.486,0.035,3.563-0.441c-1.019,0.442-2.179,0.606-3.364,0.406l-16.249-2.769c-3.191-0.544-5.386-3.539-4.878-6.653
		l2.544-15.578c0.509-3.116,3.539-5.222,6.729-4.678l16.249,2.768c3.192,0.545,5.388,3.539,4.879,6.653l-2.546,15.579
		c-0.189,1.166-0.732,2.19-1.505,2.988c0.83-0.841,1.418-1.928,1.622-3.169l2.662-16.305C100.963,53.131,98.667,49.998,95.325,49.43
		z M88.685,72.064l-11.277-1.922c-0.112-0.019-0.223-0.045-0.332-0.074c0.346,0.176,0.723,0.303,1.123,0.37l10.774,1.836
		c2.117,0.359,4.125-1.035,4.462-3.102l1.688-10.332c0.057-0.349,0.059-0.695,0.02-1.033c-0.008,0.064-0.011,0.131-0.021,0.197
		l-1.769,10.813C93,70.979,90.898,72.442,88.685,72.064z" style="opacity:0.4;fill:#FFFFFF;enable-background:new    ;"></path>
	<path d="M93.453,51.619l-14.059-2.394c-2.762-0.472-5.381,1.351-5.82,4.047L71.372,66.75
		c-0.44,2.695,1.458,5.286,4.221,5.755l14.057,2.396c2.763,0.47,5.384-1.351,5.822-4.046l2.201-13.479
		C98.112,54.68,96.216,52.089,93.453,51.619z M93.353,68.817c-0.354,2.163-2.455,3.625-4.668,3.247l-11.277-1.922
		c-2.217-0.376-3.739-2.455-3.387-4.618l1.767-10.812c0.353-2.164,2.455-3.624,4.67-3.246l11.277,1.922
		c2.215,0.377,3.739,2.454,3.386,4.616L93.353,68.817z" style="fill:#B2B2B2;"></path>
	<path d="M48.053,63.911c0,0,11.115,9.121,31.621,5.705c13.854-2.309,15.618,6.688,29.559,6.434
		C122.949,75.798,65.865,85.519,48.053,63.911z" style="fill:#62599E;"></path>
	<path d="M111.753,76.013C112.682,75.996,111.438,75.953,111.753,76.013L111.753,76.013z M94.088,78.859
		c-10.574-8.127,2.144-4.688,2.144-4.688l0,0c5.912,1.279,10.645,2.739,15.522,1.841c-13.941,0.255-17.651-8.798-31.507-6.489
		c-16.487,2.749-26.454-1.735-29.902-3.939c0.03,0.054,0.051,0.104,0.092,0.159c0,0,8.089,4.708,19.766,6.385
		c9.606,2.135,0.426,2.833,17.936,10.199c12.563,5.284,22.505,6.035,28.167,5.862C106.607,87.01,101.149,84.285,94.088,78.859z
		 M116.305,88.189c1.695,0.207,3.396,0.075,5.208-0.529C121.513,87.66,119.659,88.086,116.305,88.189z" style="fill:#726AA8;"></path>
	<path d="M67.873,47.191c0,0,8.906-40.817,23.031-31.716
		L79.575,9.504l-20.673,33.33L67.873,47.191z" style="opacity:0.47;fill:#726AA8;enable-background:new    ;"></path>
	<path d="M29.631,54.312c0,0,9.385,11.586,28.367,17.171c18.98,5.584,24.159,9.168,32.854,11.932
		C99.55,86.179,80.51,72.87,80.51,72.87S44.913,66.214,29.631,54.312z" style="fill:#62599E;"></path>
</g>
</svg>
