<svg xml:space="preserve" style="enable-background:new 0 0 211.184 252.79;" viewBox="0 0 211.184 252.79" height="252.79px" width="211.184px" y="0px" x="0px" xmlns:xlink="http://www.w3.org/1999/xlink" xmlns="http://www.w3.org/2000/svg" id="Layer_1" version="1.1">
<path d="M56.843,61.652c0,21.275-7.923,38.521-14.789,38.521c-6.867,0-21.228-17.246-21.228-38.521
	S28.32,0,35.187,0S56.843,40.377,56.843,61.652z" style="fill:#F9DCBB;"></path>
<path d="M20.826,61.652c0,12.58,1.675,23.75,10.546,30.779l0,0c5.862,0,9.558,2.383,12.453-27.626
	C46.061,41.641,41.05,0,35.187,0c-0.54,0-1.167,0.33-1.859,0.938C27.035,7.102,20.826,42.288,20.826,61.652z" style="fill:#EEACA6;"></path>
<path d="M35.187,0c-0.539,0-1.167,0.33-1.859,0.938c-6.293,6.164-12.502,41.349-12.502,60.714
	c0,1.232,0.017,2.45,0.054,3.652c2.285-16.843,6.499-34.281,10.754-38.449c0.692-0.609,1.319-0.938,1.859-0.938
	c4.68,0,8.816,26.528,9.159,49.015c0.406-2.883,0.797-6.226,1.173-10.127C46.061,41.641,41.049,0,35.187,0z" style="fill:#D99D97;"></path>
<path d="M105.394,61.652c0,21.275,8.611,38.521,16.076,38.521s23.073-17.247,23.073-38.521
	C144.544,40.377,136.397,0,128.935,0C121.47,0,105.394,40.377,105.394,61.652z" style="fill:#F9DCBB;"></path>
<g style="opacity:0.55;enable-background:new    ;">
	<path d="M105.394,61.652c0-11.102,4.378-27.402,9.625-40.455c-0.001,0.005-0.002,0.009-0.002,0.014
		c-5.805,41.66,5.804,53.722,5.804,53.722c7.802-4.284,14.501-0.602,19.31,6.352c-5.188,11.307-13.712,18.89-18.659,18.89
		C114.006,100.174,105.394,82.927,105.394,61.652z" style="fill:#E6CBAC;"></path>
</g>
<path d="M144.544,61.652c0,12.58-1.818,23.75-11.463,30.779l0,0c-6.373,0-10.39,2.383-13.537-27.626
	C117.114,41.641,122.562,0,128.935,0c0.586,0,1.269,0.33,2.021,0.938C137.795,7.102,144.544,42.288,144.544,61.652z" style="fill:#EEACA6;"></path>
<path d="M128.935,0c0.586,0,1.269,0.33,2.021,0.938c6.84,6.164,13.589,41.349,13.589,60.714
	c0,1.232-0.017,2.45-0.059,3.652c-2.483-16.843-7.064-34.281-11.689-38.449c-0.753-0.609-1.434-0.938-2.021-0.938
	c-5.086,0-9.583,26.528-9.954,49.015c-0.443-2.883-0.867-6.226-1.276-10.127C117.114,41.641,122.562,0,128.935,0z" style="fill:#D99D97;"></path>
<path d="M130.951,235.956c0,0,15.146,2.938,32.55-9.94c17.404-12.878,38.637-7.31,38.637-7.31
	s15.692,3.572,5.737,13.527c-3.444,3.445-22.979-3.958-32.888,5.268c-15.881,14.789-40.203,14.289-52.733,14.289
	C109.724,251.79,114.135,251.657,130.951,235.956z" style="fill:#F9DCBB;"></path>
<path d="M207.725,226.282c2.601,2.355-7.32-0.742-18.72-0.742c-13.185,0-29.146,14.746-43.022,18.908
	c-13.877,4.163-18.565-1.375-18.565-1.375c-1.111-0.717-2.212-1.027-3.248-0.992c-2.163,1.894-3.958,3.416-5.367,4.644
	c-0.569,1.426-0.921,3.12-0.979,5.008c1.124,0.056,2.589,0.06,4.431,0.06c12.53,0,36.854,0.5,52.733-14.289
	c9.907-9.227,29.442-1.822,32.888-5.269C210.644,229.463,209.621,227.545,207.725,226.282z" style="fill:#E5CAA9;"></path>
<path d="M41.545,251.79c-48.003-76.273,6.859-74.531,39.598-74.531c32.737,0,95.065,6.103,41.111,74.531" style="fill:#F9DCBB;"></path>
<path d="M122.254,251.79c38.185-59.771-11.602-65.101-40.194-65.101c-28.597,0-73.254-1.522-40.515,65.101" style="fill:#E5CAA9;"></path>
<path d="M116.746,156.271c0,0,24.779,45.258,0,90.446c0,0-3.424,5.072-9.525,5.072
	c-6.103,0,2.614-47.955-25.28-47.955h-1.596c-27.896,0-22.288,48.955-28.391,48.955c-6.102,0-6.415-6.072-6.415-6.072
	c-24.78-45.188,0-90.446,0-90.446" style="fill:#E5CAA9;"></path>
<path d="M99.375,170.29c0,0,40.849,29.129,18.532,75.502c0,0-3.883,6.129-15.916,6.129
	c-5.494,0,4.354-48.34-20.768-48.34h-1.438c-25.121,0-19.606,49.209-25.103,49.209c-8.404,0-11.31-5.203-11.31-5.203
	c-22.314-46.373,18.5-77.297,18.5-77.297S81.375,157.79,99.375,170.29z" style="fill:#F9DCBB;"></path>
<g style="opacity:0.55;enable-background:new    ;">
	<path d="M56.843,61.652c0-11.102-4.027-27.402-8.854-40.455c0.001,0.005,0.001,0.009,0.002,0.014
		c5.339,41.66-5.339,53.722-5.339,53.722c-7.178-4.284-13.341-0.602-17.764,6.352c4.771,11.307,12.613,18.89,17.166,18.89
		C48.92,100.174,56.843,82.927,56.843,61.652z" style="fill:#E6CBAC;"></path>
</g>
<g style="opacity:0.17;enable-background:new    ;">
	<path d="M45.538,156.271c0,0-1.286,2.353-2.978,6.511c6.809,6.562,21.274,11.09,38.021,11.09
		c17.426,0,32.38-4.904,38.811-11.898c-1.524-3.651-2.646-5.701-2.646-5.701L45.538,156.271L45.538,156.271z" style="fill:#BF5331;"></path>
</g>
<ellipse ry="18.372" rx="39.597" cy="148.957" cx="80.826" style="fill:#E3633B;"></ellipse>
<path d="M169.875,138.032C116.738,165.926,41.352,173.282,0,131.929
	c15.181-24.14,13.599-35.133,30.085-64.332c9.324-28.942,72.668-43.47,100.235-0.731
	C147.192,96.728,148.082,112.397,169.875,138.032z" style="fill:#F9DCBB;"></path>
<path d="M158.543,138.167c-46.594,27.729-112.694,35.041-148.954-6.064
	c13.311-23.997,11.924-34.925,26.381-63.95c8.175-28.77,63.719-43.213,87.891-0.727C138.653,97.109,139.434,112.686,158.543,138.167
	z" style="fill:#F9E9D6;"></path>
<path d="M58.005,100.983" style="fill:none;stroke:#000000;stroke-width:5;"></path>
<g>
	<path d="M79.622,98.781c0-20.047-10.873-36.298-24.286-36.298
		c-13.412,0-24.285,16.251-24.285,36.298c0,0,11.162,15.399,29.866,11.219C79.622,105.82,79.622,98.781,79.622,98.781z" style="opacity:0.43;fill:#8B5C29;enable-background:new    ;"></path>
	<path d="M77.627,97.833c0-17.598-10.092-31.863-22.541-31.863c-12.448,0-22.54,14.265-22.54,31.863
		c0,0,10.359,13.517,27.721,9.848C77.627,104.011,77.627,97.833,77.627,97.833z" style="fill:#FFFFFF;"></path>
	<ellipse ry="12.204" rx="11.048" cy="82.769" cx="54.479" style="fill:#48D0F0;"></ellipse>
	<path d="M69.881,73.804c1.443,2.953,2.264,6.317,2.264,9.89c0,11.715-8.783,21.211-19.617,21.211
		c-9.218,0-16.947-6.875-19.049-16.142c-0.604,2.875-0.933,5.917-0.933,9.069c0,0,10.359,13.517,27.721,9.848
		c17.36-3.669,17.36-9.848,17.36-9.848C77.627,88.241,74.625,79.646,69.881,73.804z" style="fill:#EDEDED;"></path>
	<ellipse ry="6.683" rx="6.05" cy="76.086" cx="49.481" style="fill:#FFFFFF;"></ellipse>
</g>
<g>
	<path d="M131.256,98.781c0-20.047-11.057-36.298-24.694-36.298
		c-13.64,0-24.695,16.251-24.695,36.298c0,0,11.35,15.399,30.371,11.219C131.256,105.82,131.256,98.781,131.256,98.781z" style="opacity:0.43;fill:#8B5C29;enable-background:new    ;"></path>
	<path d="M129.467,97.833c0-17.598-10.092-31.863-22.541-31.863c-12.448,0-22.539,14.265-22.539,31.863
		c0,0,10.359,13.517,27.721,9.848C129.467,104.011,129.467,97.833,129.467,97.833z" style="fill:#FFFFFF;"></path>
	<ellipse ry="12.204" rx="11.048" cy="82.309" cx="106.319" style="fill:#48D0F0;"></ellipse>
	<path d="M121.722,73.804c1.44,2.953,2.262,6.317,2.262,9.89c0,11.715-8.782,21.211-19.617,21.211
		c-9.217,0-16.946-6.875-19.049-16.142c-0.604,2.875-0.932,5.917-0.932,9.069c0,0,10.359,13.517,27.721,9.848
		c17.359-3.669,17.359-9.848,17.359-9.848C129.467,88.241,126.465,79.646,121.722,73.804z" style="fill:#EDEDED;"></path>
	<ellipse ry="6.683" rx="6.05" cy="75.626" cx="101.32" style="fill:#FFFFFF;"></ellipse>
</g>
<ellipse ry="18.06" rx="9.871" cy="131.84" cx="82.268" style="fill:#BF6161;"></ellipse>
<path d="M81.764,130.678c3.969,0,7.382,4.297,8.948,10.479c0.899-2.723,1.427-5.902,1.427-9.314
	c0-9.974-4.418-18.06-9.87-18.06s-9.871,8.085-9.871,18.06c0,2.711,0.336,5.271,0.921,7.58
	C75.047,134.189,78.177,130.678,81.764,130.678z" style="fill:#824242;"></path>
<ellipse ry="6.587" rx="16.111" cy="119.547" cx="83.302" style="fill:#A3907A;"></ellipse>
<g>
	<path d="M83.604,118.417c0,2.625-2.613,4.753-7.988,4.753s-9.731-2.128-9.731-4.753s4.357-4.753,9.731-4.753
		S83.604,115.792,83.604,118.417z" style="fill:#E6CBAC;"></path>
	<path d="M82.41,117.666c0,2.145-2.057,2.14-6.746,2.14c-4.688,0-8.488,0.004-8.488-2.14
		c0-2.145,3.801-3.884,8.488-3.884C80.354,113.782,82.41,115.521,82.41,117.666z" style="fill:#FDF2E5;"></path>
</g>
<g>
	<path d="M83.035,118.417c0,2.625,2.614,4.753,7.988,4.753c5.375,0,9.73-2.128,9.73-4.753
		s-4.355-4.753-9.73-4.753C85.649,113.664,83.035,115.792,83.035,118.417z" style="fill:#E6CBAC;"></path>
	<path d="M84.229,117.666c0,2.145,2.058,2.14,6.746,2.14c4.688,0,8.487,0.004,8.487-2.14
		c0-2.145-3.8-3.884-8.487-3.884C86.287,113.782,84.229,115.521,84.229,117.666z" style="fill:#FDF2E5;"></path>
</g>
<path d="M90.671,113.623c0,2.247-3.771,6.684-8.427,6.684c-4.653,0-8.426-4.437-8.426-6.684
	s3.772-2.324,8.426-2.324C86.898,111.299,90.671,111.376,90.671,113.623z" style="fill:#3F3F3F;"></path>
<path d="M85.73,113.647c0,1.038-1.472,1.88-3.283,1.88c-1.815,0-3.286-0.842-3.286-1.88
	c0-1.039,1.471-1.009,3.286-1.009C84.26,112.638,85.73,112.608,85.73,113.647z" style="fill:#8C8C8C;"></path>
<path d="M0,131.929c42.185,42.183,113.241,35.833,169.875,6.103C123.231,153.014,45.131,156.812,0,131.929z" style="fill:#E5CFB5;"></path>
<path d="M74.062,149.646c0,0,1.57,7.093,7.538,7.093c5.967,0,9.052-6.818,9.052-6.818L74.062,149.646z" style="fill:#BFAD97;"></path>
<path d="M91.523,146.734c0,4.134-4.068,7.481-9.088,7.481s-9.087-3.35-9.087-7.481s3.9,3.166,8.92,3.166
	S91.523,142.601,91.523,146.734z" style="fill:#F9E9D6;"></path>
<path d="M144.147,144.523l-17.567-5.329c0,0,30.801,4.066,43.295-1.162
	C169.875,138.032,157.647,144.523,144.147,144.523z" style="fill:#E5CFB5;"></path>
<path d="M9.589,135.502c0,0,10.062,5.025,29.82,0c0,0-19.47,14.154-19.47,11.412
	C19.939,144.174,9.589,135.502,9.589,135.502z" style="fill:#E5CFB5;"></path>
<g style="opacity:0.24;enable-background:new    ;">
	<path d="M57.221,243.231c0,0,0.887-21.797,21.797-21.797s20.167,21.797,20.167,21.797
		s4.355-37.941-6.312-41.273C82.207,198.624,57.221,187.838,57.221,243.231z" style="fill:#5A3D1C;"></path>
</g>
<path d="M64.059,43.053c0,0,15.448-0.321,15.448,12.196c0,0,2.88-13.161,11.609-13.161
	C91.117,42.088,84.061,36.786,64.059,43.053z" style="fill:#F9DCBB;"></path>
<path d="M15.418,120.463c0,0,1.907-14.396,14.692-9.747c12.785,4.649,23.246,7.555,26.151,4.649
	c0,0-20.341,14.528-31.383,14.528c0,0,8.871-5.657,11.042-11.041c0,0-13.929,10.605-26.333,13.248L15.418,120.463z" style="fill:#F9F4EF;"></path>
<path d="M146.807,119.907c0,0-6.517-13.84-15.248-9.19c-12.009,6.393-23.245,7.555-26.151,4.649
	c0,0,20.341,14.528,31.382,14.528c0,0-8.87-5.657-11.041-11.041c0,0,16.056,10.604,28.458,13.248L146.807,119.907z" style="fill:#F9F4EF;"></path>
<path d="M95.173,190.086c0,0,38.031,18.846,18.638,59.148c0,0-5.165,2.686-11.818,2.686
	c-25.191,0-0.761-41.9-22.594-41.9h-1.249c-21.833,0-0.35,42.77-24.191,42.77c-4.774,0-7.455-4.522-7.455-4.522
	c-19.395-40.304,16.079-58.181,16.079-58.181S79.528,179.222,95.173,190.086z" style="fill:#F9EBDE;"></path>
<path d="M82.072,151.515c-3.771,0-7.242-1.442-10.058-3.853c2.476,4.004,6.058,6.537,10.057,6.537
	s7.581-2.533,10.056-6.535C89.312,150.075,85.842,151.515,82.072,151.515z" style="fill:#F9F4EF;"></path>
<g>
	<g style="opacity:0.07;">
		<circle r="9.427" cy="174.54" cx="81.599"></circle>
	</g>
	<g>
		<circle r="9.427" cy="170.54" cx="81.599" style="fill:#A3A3A3;"></circle>
	</g>
</g>
<circle r="8.108" cy="169.212" cx="80.623" style="fill:#D6D6D6;"></circle>
<circle r="5.069" cy="168.456" cx="79.231" style="fill:#F5F5F5;"></circle>
<g>
	<ellipse ry="5.251" rx="4.229" cy="246.591" cx="99.894" style="fill:#FFFFFF;"></ellipse>
	<ellipse ry="5.251" rx="4.229" cy="245.143" cx="111.19" style="fill:#FFFFFF;"></ellipse>
</g>
<g>
	<ellipse ry="5.251" rx="3.948" cy="246.591" cx="60.421" style="fill:#FFFFFF;"></ellipse>
	<ellipse ry="5.251" rx="3.948" cy="245.143" cx="49.878" style="fill:#FFFFFF;"></ellipse>
</g>
</svg>
