<?xml version="1.0" standalone="no"?><!DOCTYPE svg PUBLIC "-//W3C//DTD SVG 1.1//EN" "http://www.w3.org/Graphics/SVG/1.1/DTD/svg11.dtd"><svg t="1677460665040" class="icon" viewBox="0 0 1024 1024" version="1.1" xmlns="http://www.w3.org/2000/svg" p-id="21770" xmlns:xlink="http://www.w3.org/1999/xlink" width="256" height="256"><path d="M870.4 307.2l-192-211.2c-12.8-19.2-38.4-32-70.4-32H256c-70.4 0-128 57.6-128 128v640c0 70.4 57.6 128 128 128h512c70.4 0 128-57.6 128-128V371.2c0-19.2-6.4-44.8-25.6-64zM832 832c0 38.4-25.6 64-64 64H256c-38.4 0-64-25.6-64-64V192c0-38.4 25.6-64 64-64h358.4v192c0 6.4 6.4 19.2 12.8 19.2L832 428.8V832z m0-454.4l-166.4-70.4V172.8l160 179.2c0 6.4 6.4 12.8 6.4 25.6z" fill="#333333" p-id="21771"></path><path d="M409.6 518.4l25.6-25.6c6.4-6.4 6.4-25.6 0-32-6.4-6.4-25.6-6.4-32 0l-64 64c-6.4 6.4-12.8 12.8-12.8 19.2s0 12.8 6.4 19.2l64 64c6.4 6.4 12.8 6.4 19.2 6.4s12.8 0 19.2-6.4c6.4-6.4 6.4-25.6 0-32l-25.6-25.6h198.4c6.4 0 12.8 0 19.2-6.4l64-64c6.4-6.4 6.4-25.6 0-32-6.4-6.4-25.6-6.4-32 0l-64 51.2H409.6z" fill="#333333" p-id="21772"></path></svg>