<?xml version="1.0" standalone="no"?><!DOCTYPE svg PUBLIC "-//W3C//DTD SVG 1.1//EN" "http://www.w3.org/Graphics/SVG/1.1/DTD/svg11.dtd"><svg t="1667964580922" class="icon" viewBox="0 0 1024 1024" version="1.1" xmlns="http://www.w3.org/2000/svg" p-id="7693" xmlns:xlink="http://www.w3.org/1999/xlink" width="360" height="360"><path d="M762.88 481.28H261.12c-13.653333 0-25.6-11.946667-25.6-25.6s11.946667-25.6 25.6-25.6h419.84L580.266667 358.4c-11.946667-8.533333-13.653333-23.893333-6.826667-35.84 8.533333-11.946667 23.893333-13.653333 35.84-6.826667l167.253333 117.76c8.533333 6.826667 13.653333 18.773333 10.24 29.013334-3.413333 10.24-13.653333 18.773333-23.893333 18.773333zM428.373333 711.68c-5.12 0-10.24-1.706667-15.36-5.12l-167.253333-117.76c-8.533333-6.826667-13.653333-18.773333-10.24-29.013333 3.413333-10.24 13.653333-17.066667 23.893333-17.066667h501.76c13.653333 0 25.6 11.946667 25.6 25.6s-11.946667 25.6-25.6 25.6H343.04L443.733333 665.6c11.946667 8.533333 13.653333 23.893333 6.826667 35.84-6.826667 6.826667-13.653333 10.24-22.186667 10.24z" fill="#333333" p-id="7694"></path><path d="M512 989.866667C249.173333 989.866667 34.133333 774.826667 34.133333 512S249.173333 34.133333 512 34.133333s477.866667 215.04 477.866667 477.866667-215.04 477.866667-477.866667 477.866667z m0-904.533334C276.48 85.333333 85.333333 276.48 85.333333 512s191.146667 426.666667 426.666667 426.666667 426.666667-191.146667 426.666667-426.666667S747.52 85.333333 512 85.333333z" fill="#333333" p-id="7695"></path></svg>