<?xml version="1.0" standalone="no"?><!DOCTYPE svg PUBLIC "-//W3C//DTD SVG 1.1//EN" "http://www.w3.org/Graphics/SVG/1.1/DTD/svg11.dtd"><svg t="1666766032135" class="icon" viewBox="0 0 1024 1024" version="1.1" xmlns="http://www.w3.org/2000/svg" p-id="19652" xmlns:xlink="http://www.w3.org/1999/xlink" width="360" height="360"><path d="M248.8 850.3h526.5c33 0 60-27 60-60V307.2L628.7 100.7h-380c-33 0-60 27-60 60v629.6c0.1 33 27.1 60 60.1 60z" fill="#1296db" p-id="19653" data-spm-anchor-id="a313x.7781069.0.i8" class=""></path><path d="M688.7 307.2h146.5L628.7 100.7v146.5c0 33.2 26.9 60 60 60z" fill="#e4e4e2" p-id="19654" data-spm-anchor-id="a313x.7781069.0.i9" class=""></path><path d="M727 510.6H297c-16.5 0-30-13.5-30-30s13.5-30 30-30h430c16.5 0 30 13.5 30 30s-13.5 30-30 30zM727 644.7H297c-16.5 0-30-13.5-30-30s13.5-30 30-30h430c16.5 0 30 13.5 30 30s-13.5 30-30 30zM537 366.3H297c-16.5 0-30-13.5-30-30s13.5-30 30-30h240c16.5 0 30 13.5 30 30s-13.5 30-30 30z" fill="#FFFFFF" p-id="19655"></path></svg>